<?xml version="1.0" encoding="utf-8"?>
<!-- Generator: Adobe Illustrator 25.0.0, SVG Export Plug-In . SVG Version: 6.00 Build 0)  -->
<svg version="1.1"
	 id="Berlin" inkscape:version="0.47 r22583" sodipodi:docname="wien_bezirke.svg" xmlns:cc="http://creativecommons.org/ns#" xmlns:dc="http://purl.org/dc/elements/1.1/" xmlns:inkscape="http://www.inkscape.org/namespaces/inkscape" xmlns:rdf="http://www.w3.org/1999/02/22-rdf-syntax-ns#" xmlns:sodipodi="http://sodipodi.sourceforge.net/DTD/sodipodi-0.dtd" xmlns:svg="http://www.w3.org/2000/svg"
	 xmlns="http://www.w3.org/2000/svg" xmlns:xlink="http://www.w3.org/1999/xlink" x="0px" y="0px" viewBox="0 0 715.1 589"
	 style="enable-background:new 0 0 715.1 589;" xml:space="preserve">
<style type="text/css">
	.st0{fill:#123456;stroke:#FCFCFC;stroke-width:0.13;stroke-linejoin:round;stroke-miterlimit:10;}
	.st1{enable-background:new    ;}
	.st2{fill:#FFFFFF;}
	.st3{font-family:'AGBuchBQ-Medium';}
	.st4{font-size:14px;}
</style>
<g id="Bezirksgrenze_1_" transform="matrix(0.1,0,0,0.1,-15.85,-5.2)">
	<path id="Charlottenburg-Wilmersdorf_1_" class="st0" d="M1530.3,2901.2L1530.3,2901.2l-3.1,7.9l-3.1,9.4l-7.8,18.8l-1.6,1.6
		l4.7,1.6l1.5,1.6h1.6v3.1l-9.4-3.1h-3.1l-3.1,3.1l-3.1,1.6h-7.8l-1.6-1.6l-7.8-1.6l-6.2-1.6l-7.8,14.1l-6.3,23.5l-18.8,36.1
		l6.3,12.5l4.7,25.1l-50,26.7l-40.6,17.3l-23.4,9.4l-42.2,1.6l-35.9,18.8l-18.8,18.8l-4.7,45.5v34.5l-20.3,29.8l-10.9,34.5l4.7,37.6
		l28.1,48.7l3.1,29.8l-10.9,25.1l-20.3,43.9l10.9,81.6l-1.6,37.6l54.7,12.6l14.1,3.1l6.3-4.7l12.5-1.6l4.7,1.6l3.1,1.6l4.7,7.9
		l1.6,3.1v20.4l3.1,3.1l1.6,3.1l9.4,4.7h3.1l14.1-4.7l9.4-15.7l4.7-3.1l6.2-1.6l9.4-4.7l15.6-1.6h3.1l1.6,1.6l9.4,1.6l3.1,1.6
		l4.7,1.6l10.9,4.7l12.5,3.1h6.2l9.4,3.1l7.8,3.2h3.1l3.1-1.6l1.6-1.6h3.1l7.8,1.6h1.5l4.7-3.2l3.1-1.6l21.9-4.7l1.6-1.6h6.3
		l20.3,1.6l40.6,1.6l7.8-1.6l4.7,1.6l18.8-1.6l14.1-4.7l18.8-1.6l17.2-4.7h12.5l14.1,6.3l10.9,4.7l14.1,7.9l15.6,4.7l7.8,1.6h1.6
		l3.1,1.6l6.2,1.6l7.8,1.6v1.6l26.6,6.3l10.9,3.1l14.1,4.7h3.1l28.1,7.8l3.1,1.6l1.6-1.6l3.1,3.1h1.6l50,15.7h12.5l12.5-1.6l9.4,1.6
		l14.1,1.6l12.5,1.6h9.4l3.1-3.1h4.7l7.8-6.3l3.1-4.7l9.4-7.9l4.7,7.9l1.6,3.1l3.1,1.6l1.6,1.6h4.7l3.1,1.6l6.3-1.6l4.7-1.6
		l17.2-3.1l3.1-1.6l3.1,1.6l60.9-11l9.4-3.1h1.6l31.2-4.7h3.1l14.1-3.1l3.1-1.6v3.1l3.1-1.6l7.8-1.6h3.1l12.5-3.1l3.1-1.6h3.1
		l15.6-4.7h1.6l18.7-6.3l1.6-1.6l7.8-3.2h1.6l15.6-6.3h3.1l15.6-6.3l3.1,6.3l4.7,6.3l3.1-4.7v-3.2l21.9,6.3l3.1,1.6l29.7,7.9
		l3.1,1.6l23.4,7.8h3.1l54.7,15.7h1.6l29.7,7.9l1.6,1.6v1.6l12.5-9.4l7.8,6.3h1.6l1.6,1.6l6.2-4.7l3.1,3.1l1.6,3.1l4.7,3.1l3.1,3.1
		l3.1,1.6l1.6-1.6l3.1-1.6h1.6l50,1.6h29.7l4.7,1.6h7.8l1.6-3.1v-28.2l1.5-1.6v-17.3l4.7-4.7v-3.1l-3.1-1.6v-6.3h-1.6v-17.3l1.6-1.6
		v-56.5l1.6-1.6v-40.8h1.6l81.2,1.6h7.8l39.1,1.6h3.1v-6.3h1.6l-1.6-1.6h1.6l9.4-1.6l32.8-4.7v-12.6l1.6-17.2v-14.1l-1.6-1.5v-23.5
		l1.6-7.9v-58.1h-1.6v-6.3l1.6-7.8v-23.5h1.6l-1.6-6.3l-1.6-1.6v-9.4l-1.5-4.7v-3.2h1.5v-3.1h-1.5l1.5-4.7v-7.9l1.6-1.6h3.1l1.6-4.7
		l-4.7-4.7l1.6-18.8v-3.1h-1.6v-6.3l1.6-18.8l1.6-4.7v-1.6l1.6-1.6v-9.4l-1.6-1.6l-1.6-18.8h1.6v-1.6h-1.6l1.6-1.6l4.7-23.5h1.6
		v-4.7l1.6-3.1l9.4-28.2l-1.6-4.7l1.6-3.1l-1.6-1.6l-10.9-6.3l-3.1-1.6l-4.7-4.7l1.6-3.2l21.9-34.5l4.7-6.3l18.8-28.2v-1.6l-6.3-1.6
		l-3.1-1.6h-4.7l-1.6-1.6h-3.1l-3.1,1.6h-3.1l-1.6-6.3l-3.1-7.8l-15.6,3.1h-4.7l-9.4-1.6h-1.6l-1.5-1.6l-15.6-11v-1.6l-3.1-1.6
		l12.5-25.1v-6.3l-1.6-1.6v-1.6l-1.6-1.6v-1.6h-1.6l-4.7-1.6l-1.6,1.6l-6.2-3.1l-34.4-18.8l26.6-14.1l6.2-3.2l3.1-3.1l3.1-1.6
		l3.1-6.3l-1.6-1.6v1.6l-25-9.4h-1.6l-3.1-1.6l-3.1-3.1l-1.6-3.1v-1.6h4.7l3.1-1.6l1.6,1.6h1.6v-1.6l6.2-3.1h1.6l37.5-3.1l1.6-9.4
		l1.6-3.1l-3.1,1.6l3.1-9.4l-3.1-1.6l-6.3-6.3v-3.1l-4.7-7.8l-6.2-22l-3.1,1.6h-17.2l-4.7-1.6l-6.2-3.1l-4.7-3.1l-9.4-9.4l-1.6-3.2
		l-3.1-3.1l-1.6-3.1l-3.1-9.4v-9.4l1.6-4.7l3.1-15.7v-15.7l-1.6-3.1v-3.1l-3.1-6.3l-1.6-1.6v-3.1l-3.1-3.1l-18.7-22l-6.3-6.3
		l-3.1-1.6l-4.7-1.6l-3.1-1.6l-1.6-1.6l-4.7-1.6l-3.1-1.6h-23.4l-3.1,1.6h-3.1l-4.7,1.6l-1.6,1.6l-9.4,4.7l-3.1,3.1l-1.5,3.1
		l-3.1,3.1l-4.7,9.4v3.1l-1.6,7.9v22l-6.3,9.4l-4.7,4.7l-10.9-9.4v-1.6l-14.1-61.2l-3.1-17.3v-3.1l-1.6-6.3l-15.6-70.6v-3.1l1.6-1.6
		l4.7-1.6h1.6l4.7-3.1l23.4-6.3l-1.6-4.7h1.6l1.6-1.6l3.1-4.7l-1.6-7.8l4.7-6.3h-4.7l-32.8,6.3l-3.1,1.6l-1.5-1.6l-3.1,1.6h-1.6
		l-1.6-4.7l-1.6-3.1l-3.1-4.7l-7.8-34.5l-3.1-17.3l156.2-36.1h4.7l4.7-1.6l12.5-3.1h4.7l3.1-3.1h1.6l-6.3-7.8l-4.7-7.8l-9.4-11
		v-17.3l1.5-3.1v-11l-7.8-4.7l-7.8-7.8l-3.1-4.7l-4.7-4.7l-15.6-20.4l-7.8-12.6l-6.2-6.3l-20.3-25.1l-9.4-12.6l-3.1-6.3l-6.2-4.7
		l-6.3-7.8l-29.7-3.1h-25l-17.2-1.6l-9.4-1.6l-40.6-3.1l-53.1-3.1h-6.2l-46.9-1.6h-4.7l-254.7-7.8l-15.6-1.6l1.6,1.6h-4.7l1.6,1.6
		l-1.6,7.9v7.8l3.1,6.3l1.6,4.7l3.1,4.7l1.6,7.8l23.4,70.6h-3.1l4.7,11v4.7l-1.5,3.1v3.1l-7.8,34.5l-1.6,4.7v3.1l-3.1,7.8h3.1
		l7.8,3.1l9.4,4.7l10.9,11l3.1,4.7l1.6,3.1l-1.6,1.6l3.1,6.3l1.6,1.6l1.5,6.3v3.1l1.6,3.1v4.7l1.6,1.6h-1.6l43.8,22l7.8,3.1l6.2,1.6
		l4.7,1.6l-1.6,6.3l1.6,1.6l-7.8,37.6v3.1l-1.6,12.6l-1.6,1.6l-3.1,6.3l-1.6-1.6l-7.8-1.6h-3.1l-3.1-1.6h-3.1l-14.1,4.7l-3.1,1.6
		l-4.7,3.1l-9.4,7.8l-4.7,4.7l-4.7,1.6l-6.3,3.1h-6.3l-4.7,1.6l-20.3-3.1H2074v1.6h-20.3l-12.5,1.6l1.6,1.6l-9.4,3.1l-4.7,3.2
		l-4.7,1.6l-6.2,3.1l-15.6,9.4l-12.5,3.1l-46.9,3.1h-34.4l-20.3-1.6l-9.4-1.6l-10.9-6.3l-4.7-3.1l-6.2-6.3l-4.7-3.2l-3.1,11h3.1
		l1.6,1.6l3.1,6.3v14.1l1.6,9.4v4.7l1.6,4.7l3.1,12.5l-1.6,6.3l-9.4-4.7h-3.1l-3.1-1.6v1.6l-14.1-6.3l-9.4-4.7h-1.5l-4.7-1.6
		l-23.4-11l-9.4-3.1l-1.6-1.6l-1.5,4.7l-14.1-4.7h-23.4l-15.6,1.6h-9.4l-29.7,4.7l-1.5-1.6h-1.6l-28.1-3.1l-1.6,3.1v1.6l-7.8,1.6
		l-14.1-3.1h-15.6l-15.6-3.1l-4.7-1.6l-6.3-1.6l-4.7,7.9l1.5,1.6v1.6l-6.2,15.7l-7.8,22l-6.3,12.5l-4.7,12.5l-1.6,9.4v11l1.6,42.4
		l3.1,39.2l3.1,26.7l1.5,4.7l7.8,12.5h-14.1v-7.9h-3.1l-6.2,12.6l-3.1-1.6l-6.2,9.4l-7.8,11l-4.7,4.7L1530.3,2901.2z"/>
	<path id="Friedrichshain-Kreuzberg_1_" class="st0" d="M4009.8,3174.2L4009.8,3174.2l-3.1,3.1l-23.4,28.2v1.6h-1.6l-1.6,1.6h-9.4
		l-1.6-1.6h-7.8l-1.6,1.6h-1.6l-1.5,1.6h-1.6v1.6l-6.2,6.3l-21.9,28.3l-18.8,23.5l-3.1,1.6l-1.6,1.6l-6.2,9.4v7.9l-1.6,4.7h-3.1
		l-10.9-12.5l-29.7-15.7l-1.6-1.6l-45.3-23.5l-26.6-14.1l-3.1-1.6l-60.9-32.9l-7.8-3.1l-6.3-3.1l-7.8-1.6l4.7,7.8l7.8,22l1.6,3.1
		l6.2,17.3l1.6,3.1l3.1,11l1.6,3.1l6.2,15.7v3.1l6.2,12.6l1.6,4.7v3.1l10.9,26.7l1.6,3.1l-4.7,6.3l-10.9,18.8v6.3l-9.4-4.7
		l-20.3-9.4l-3.1-1.6l-25-4.7l-32.8-7.9l-14.1-3.1h-4.7l-3.1-1.6l-57.8-12.5l-1.6,3.2v3.1l3.1,3.2l4.7,20.4l-10.9,18.8l-4.7,1.6
		l-28.1,17.3h-29.7l-12.5,20.4v1.6l-65.6-1.6v-32.9l-84.4-1.6v15.7h-106.2l-20.3-1.6h-29.7v-3.1h26.6l1.6-43.9l-6.3-1.5v-3.2
		l12.5-25.1l6.3-1.6l1.6-17.3l9.4-17.2l1.6-3.1l-1.6-1.6h-4.7l-1.6-1.6h-3.1l-4.7-3.1l-4.7-1.6h-3.1l-4.7-1.6l-7.8-3.1h-3.1
		l-1.6-1.6l-3.1-1.6h-4.7l-4.7-3.1h-1.5l-3.1-1.6v-1.6l-18.8-7.9l-1.6,3.1l-3.1-1.6l-6.2-1.6l1.6-3.1l1.5-7.9l-1.5-9.4l1.5-34.5
		l1.6-15.7l9.4-12.6l1.6-11l-1.6-3.1l12.5-17.3l6.3-29.8l3.1-3.1l14.1-25.1l4.7-14.1l1.6-3.1l3.1,4.7l3.1,6.3l3.1,3.1l3.1,1.6
		l3.1-1.6l12.5-37.6l1.6-1.6l14.1-40.8l1.6,1.6l12.5,15.7h9.4l59.4-6.3h3.1l48.4-3.1l3.1-1.6l17.2-1.6h3.1l17.2-1.6h3.1l46.9-4.7
		h4.7l9.4-23.5l14.1,7.8l6.3,4.7l7.8,3.1l10.9,9.4l6.3,3.1v1.6l1.5-3.1l7.8-4.7l26.6,32.9l1.6,3.1l3.1-1.6l18.8-11l14.1,31.4
		l1.6,3.1l3.1,1.6l17.2,9.4l6.3,4.7l1.6-3.1l4.7-7.8v-3.1l3.1-1.6l18.8,7.9l4.7,3.1h1.6l3.1,1.6l6.2-14.1h4.7l3.1-1.6l1.6-1.6
		l4.7-7.8l21.9,9.4h3.1l3.1,1.6h15.6l4.7-1.6h4.7l3.1-1.6h1.6l3.1-1.6h3.1l6.2-3.1l6.2-6.3l4.7,3.1l12.5-26.7l4.7-14.1l3.1-1.6
		l3.1-9.4l-1.6-1.6v-3.1l-3.1-1.6l-4.7,3.2v-4.7l-14-14.1l-12.5-11l-12.5-12.5l-1.6-3.1l-12.5-9.4h-1.6v-1.6l-1.6-1.6h-1.6l-1.6-3.2
		l4.7-7.8l1.6-1.6v-1.6l4.7-7.8l1.6-3.1v-1.6l9.4-18.8l7.8-20.4v-3.1l3.1-4.7v-1.6l4.7-15.7l4.7-11l-1.6-1.6h-4.7v-1.6l1.6-3.1
		l-3.1-1.6h-1.6l3.1-6.3l4.7-7.9l3.1-7.8v-1.6l4.7,1.6l1.6,1.6h10.9v-3.1l4.7-15.7l3.1-9.4h-1.6l-6.2-4.7l-7.8-6.3l-1.6-1.6
		l-21.9-15.7h4.7v-1.6h6.2l-1.6-3.1v-3.1l-4.7-1.6h-3.1l-18.7-9.4l-1.6-1.6l-4.7-3.1l-9.4-4.7l-1.5-3.1l-6.3-3.1l-10.9-6.3l-1.6-1.6
		l14.1-20.4l1.6-1.6l6.3-7.9l12.5-17.2h1.6l1.6-1.6l4.7,1.6h1.6l1.6,1.6l3.1-4.7h3.1l23.4-4.7l10.9-1.6l3.1-1.6l15.6-1.6l1.6-1.6
		l65.6-12.5l7.8-1.6l9.4,14.1h4.7l35.9-39.2l35.9,54.9l1.6,3.1l7.8,12.5l7.8,9.4l7.8-3.1l1.6-1.6l28.1-14.1l12.5-3.1l3.1-1.6v1.6
		l1.6,1.6v1.6l9.4,20.4l1.5,3.1l7.8,20.4l9.4,25.1l7.8,17.3l3.1,6.3l-7.8,17.3l35.9,9.4l3.1,1.6l37.5,12.5h3.1l42.2-6.3l4.7-1.6
		l21.9-1.6l3.1-1.6l10.9-1.6h6.3l9.4-1.6h1.6v3.1h3.1l6.3,11l-1.6,1.6l7.8,12.5h4.7v1.6l4.7,12.5l3.1,7.8l1.6,4.7l4.7,12.5l4.7,11
		v1.6l1.6,3.1l3.1,11v1.6l4.7,4.7h1.6l7.8,4.7l-3.1,6.3l-17.2-9.4l-3.1,18.8l-1.6,6.3l1.6,6.3l3.1,11v4.7l1.6,1.6l-1.6,1.6l4.7,26.7
		l-3.1,3.1h-1.6l-1.6,4.7l-3.1,6.3l-15.6,28.2h1.6l-1.6,1.6h-1.6l-7.8,14.1l3.1,4.7l-3.1,1.6l-3.1,3.2v3.1l-6.3,6.3l-3.1,4.7
		l-1.6,1.6l-3.1,4.7l-1.6,1.6l-1.6,3.1l1.6,3.1l-1.6,1.6l-7.8,14.1l-6.2,25.1v1.6l-1.6,1.6v3.1l-1.6,6.3l-6.3,23.5l-1.6,7.9h-1.6
		l-1.6,7.8l9.4,3.1l-3.1,3.1v4.7h1.6l3.1,3.1l3.1,4.7l15.6,11v-1.6l9.4,7.8l9.4,6.3l10.9,4.7l6.2,3.1l3.1,3.1l6.2,4.7l1.6,1.6
		l1.6,4.7l-4.7,6.3l-1.6,3.1l3.1,11l4.7,6.3l3.1,4.7h1.6l31.2,18.8l1.6,1.6l7.8,14.1h-1.6l4.7,7.8l10.9,9.4l4.7,1.6l17.2-14.1
		l4.7,4.7v1.6h9.4l7.8,7.9l3.1,6.3l25,15.7l4.7,12.6l28.1,17.3l-7.8,14.1l-1.6-1.6h-1.6l-14.1-4.7l-7.8-1.6l-18.8,3.1l-7.8,4.7
		l-14.1,9.4l-4.7,4.7l-12.5,9.4l-9.4-22v-1.6l-4.7-4.7l-14.1-4.7h-9.4l-3.1,1.5l-1.6,3.1l-4.7,11l-4.7-11l-1.6-3.1v-1.5l-1.6-3.2
		l-1.6-11l-6.3-9.4l-9.4-11l-7.8-6.3l-18.8-14.1l-28.1-7.8l-26.6-14.1l-17.2-6.3l-28.1-18.8l-10.9-7.9l-1.6-6.3l1.6-1.6l3.1-4.7
		l1.6-3.1v-1.6l-4.7-3.1h-4.7l-6.2-3.1h-3.1l-21.9-14.1l-4.7-3.1l-42.2-12.6l-14-4.7h-14.1l-4.7,1.6h-3.1l-4.7,1.6l-4.7,3.1
		L4009.8,3174.2z"/>
	<path id="Lichtenberg_1_" class="st0" d="M4231.7,3025.2L4231.7,3025.2l1.6-3.1l1.6-1.6l3.1-4.7l1.6-1.6l3.1-4.7l6.3-6.3v-3.1
		l3.1-3.2l3.1-1.6l-3.1-4.7l7.8-14.1h1.6l1.6-1.6h-1.6l15.6-28.2l3.1-6.3l1.6-4.7h1.6l3.1-3.1l-4.7-26.7l1.6-1.6l-1.6-1.6v-4.7
		l-3.1-11l-1.6-6.3l1.6-6.3l3.1-18.8l17.2,9.4l3.1-6.3l-7.8-4.7h-1.6l-4.7-4.7v-1.6l-3.1-11l-1.6-3.1v-1.6l-4.7-11l-4.7-12.5
		l-1.6-4.7l-3.1-7.8l-4.7-12.5v-1.6h-4.7l-7.8-12.5l1.6-1.6l-6.3-11h-3.1v-3.1h-1.6l-7.8-11l-4.7-9.4l-3.1-3.1l-3.1-4.7l-3.1-3.2
		l-1.6-3.1l-9.4-6.3l-4.7-4.7l-4.7-3.1l-6.2-3.1l-4.7-3.1l-18.7-4.7l-23.4-4.7l-12.5-6.3l-7.8-4.7l-4.7-1.6l-9.4-6.3l-6.2-3.1
		l-12.5-12.5l-18.8-29.8l-1.6-3.1l3.1-3.1h3.1l15.6-6.3l18.8-6.3l6.3-1.6l3.1-6.3v-1.6l1.6-1.6l3.1-6.3l9.4-17.3l10.9-22h1.5v-4.7
		l10.9-6.3v-1.6h1.6v-1.6l17.2-9.4l4.7-3.1l3.1-1.6h1.6v-1.6h1.6v1.6l15.6-12.6h1.6l-7.8-18.8l-3.1-6.3l-9.4-6.3l-6.3-3.1l4.7-9.4
		l1.6-1.6l7.8-18.8l-1.5-1.6v1.6l-3.1-1.6l28.1-34.5l-4.7-20.4l-1.6-9.4h-1.6l-3.1-20.4l-12.5-56.5l-1.5-3.1l-4.7-22l1.6-3.1h1.6
		l1.6-1.6l10.9,1.6l6.2,3.1l4.7,4.7h12.5l7.8,1.6h34.4l35.9,1.6l10.9,1.6h4.7l9.4-9.4l-3.1-7.8l-4.7-7.8v-3.1l-3.1-3.1l3.1-6.3
		l4.7,3.1l1.6-1.6h1.6v1.6h15.6v-1.6h1.6l1.6-1.6h1.6l14.1-17.3v-1.6l1.6-1.6l20.3-23.5l3.1-4.7l9.4,3.1l34.4,9.4l1.6,1.6h3.1
		l35.9,12.5l4.7,3.1l9.4-36.1l1.6-3.1v-3.1l1.5-1.6v-9.4l1.6-1.6v-3.1l-1.6-3.1v-9.4l-1.5-3.1v-3.1l-1.6-3.1v-1.6l-1.5-3.1v-3.1
		l-1.6-3.1l-1.6-1.6l-4.7-9.4l-9.4-14.1l-10.9-20.4l-3.1-4.7l-3.1-7.8l-3.1-4.7l-1.6-1.6l-1.6-3.1l-4.7-4.7l-3.1-1.6l-4.7-3.1
		l-3.1-3.1l-18.7-9.4l-18.8-6.3h-4.7l-4.7-1.6l-3.1-4.7l1.5-7.8l3.1-3.1l3.1-17.3v-1.6l3.1-11h-3.1l-23.4-4.7v-1.6l4.7-14.1v-11
		l1.6-1.6l-6.2-1.6l1.6-1.6l25-34.5l15.6-17.3l-18.7-15.7l-20.3-17.3l-10.9-7.8l1.6-1.6l-1.6-14.1l-1.6-1.6v-1.6h-1.6l-3.1,1.6h-4.7
		l-3.1-1.6h-15.6l-3.1-1.6h-3.1v-11h3.1l1.6-3.1l-3.1-1.6v-7.8l1.6-4.7v-3.1l1.6-3.1l1.6-6.3v-1.6l-3.1-1.6v-4.7l1.6,1.6V1759h6.2
		v-1.6h-1.6l-1.6-1.6l-1.6-12.5h1.6l-1.6-11l-3.1-6.3v-29.8l1.6-4.7l1.6-9.4v-6.3l3.1-7.8l1.6-7.8v-3.1l12.5,4.7l3.1-12.5l17.2-1.6
		l1.6-6.3l6.3-20.4h3.1l6.2-23.5l3.1-6.3v-3.1l3.1-6.3l1.6-1.6l1.6-3.1l1.6-1.6l6.2-9.4l9.4-11l3.1-3.1h1.5l1.6-1.6l1.6-3.1l1.5-1.6
		l3.1-1.6l6.2-4.7l96.9-62.8h1.6l65.6-43.9h1.6l1.6-1.6v3.1l1.6,3.1l10.9,25.1l18.8,45.5l98.4-6.3l56.3-4.7l46.9,9.4h4.7l31.2,11
		l3.1,1.6l32.8,11l6.3,3.1h1.5l10.9,4.7h1.6l25,9.4l1.6,1.6l32.8,11h1.6l57.8,20.4l-1.6,6.3l25,15.7l7.8,4.7l15.6,11l12.5,7.8
		l28.1,22l12.5,12.5l29.7,26.7l4.7,4.7l7.8,6.3l4.7,7.8l3.1,1.6l7.8,7.8l3.1,4.7l9.4,15.7l14.1,15.7l6.3,15.7l14.1,20.4l4.7,12.5
		l3.1,6.3v1.6l6.3,9.4l-17.2,25.1l3.1-1.6v3.1l-3.1,1.6l-17.2,11h-1.6l-4.7,3.1l-32.8,11l-3.1,3.1l-48.4,18.8h-1.6l-34.4,14.1
		l-29.7,11l-3.1,1.6l-6.2,1.6h-1.6l-14.1,6.3l-18.8,6.3l-1.6,1.6v1.6l-10.9,12.6v1.6l-7.8,3.1l-1.6,1.6l-12.5,6.3l-12.5,3.1h-1.6
		l-3.1,3.1l-4.7,7.8l-3.1,3.1l-51.6,67.5h-1.6l-12.5,15.7l-4.7,4.7v1.6l-7.8,6.3l-3.1,4.7l-12.5,11l-1.6,3.1l-31.2,31.4l-9.4,6.3
		l-7.8,7.8l-7.8,6.3l-3.1,3.1v1.6l-1.6,1.6l3.1,6.3l6.3,15.7l6.2,18.8v3.1l3.1,7.8v3.1l1.6,3.1v1.6l1.6,6.3l1.6,7.8v1.6l1.6,3.1
		l1.6,9.4v1.6l9.4,42.4v1.6l1.6,1.6l3.1,17.3l4.7,18.8v1.6l3.1,17.3l1.6,4.7l3.1,11l1.6,11v3.1l12.5,54.9l6.2,6.3l-6.2,1.6h-1.6
		l1.6,4.7h-3.1v3.1l-4.7,3.1l-9.4,4.7l-6.2,1.6l-7.8,3.1l-6.2,1.6l-12.5,6.3l-4.7,1.6l-4.7,3.1l-23.4,12.6l-6.3,3.1l-4.7,1.6
		l-6.2,1.6l-3.1,1.6h-3.1l-6.3,1.6h-1.5l-3.1,1.6h-3.1l-9.4,1.6l-3.1-1.6h-4.7l-6.3,1.6l-7.8,1.6h-4.7l-3.1,1.6l1.6,1.6l15.6,31.4
		l1.6,4.7l1.6,7.9v12.5l1.6,14.1v7.8l1.6,37.6v3.2l1.6,26.7l1.6,7.8v29.8l1.6,23.5v3.1l-1.6,20.4v25.1l-1.6,26.7l-1.6,23.5v1.6
		l-1.6,23.5v1.6l-1.6,34.5l-1.6-1.6v11h15.6v3.1h4.7v-1.6h20.3l6.2-1.6h7.8l9.4,1.6h1.6l14,1.6h43.8v3.1h26.6l6.3-1.6l4.7,1.6
		l7.8,1.6l4.7,1.6h3.1l3.1,3.1l9.4,6.3l7.8,7.8l3.1,6.3l1.6,1.5l1.6,3.2v6.3l1.5,4.7v22h-4.7l-12.5-1.6v15.7l1.6,18.8l-3.1,1.6
		l1.6,26.7l-3.1,6.3l-7.8,9.4l14.1,36.1l10.9,26.7l12.5,34.5l7.8,23.5v1.6h1.5l14.1,1.6l7.8,1.6l3.1,1.6h1.6l12.5,22l7.8,14.1
		l-1.6,1.6l-1.6,3.1l1.6,3.1l4.7,3.1l4.7,36.1v4.7l3.1,4.7l12.5,20.4l18.8,51.8l18.7,50.2l3.1,6.3l1.6,6.3l-1.6,3.1l-3.1,11l-7.8,11
		l-9.4,22h-3.1v47.1l6.3,1.6l12.5,25.1l12.5,22l4.7,22l7.8,36.1l6.2,1.6h-10.9l-12.5-1.6l-14.1-3.1h-10.9v1.6l3.1,6.3v3.1l-1.6-1.6
		l-14-1.6l-3.1-1.6l-39.1-6.3l-6.3-1.6h-1.6l-15.6-11l-1.6-1.6l-7.8-4.7l-3.1,3.1v1.6l-6.3,7.8l-4.7,4.7l-21.9,28.3l-7.8,11
		l-17.2,22l-18.8,23.5l-10.9,14.1h-1.6l-1.6,3.1l-3.1,3.1l-28.1-37.6l-7.8-12.6l-17.2-25.1l-21.9-29.8l-12.5-14.1l-9.4-7.9l-4.7,9.4
		l-4.7,7.8l-1.6,1.6v1.6h-3.1l-1.5-1.6l-29.7-17.3l-4.7-1.6l-12.5-6.3h-1.6l-4.7-1.6h-6.2l-3.1-1.6h-6.2l-4.7,1.6h-3.1l-4.7,1.6
		l-9.4,1.6h-1.6l-37.5,9.4h-1.6v-1.6l-17.2-26.7l-18.8-26.7l-1.6-1.6l-10.9-32.9l-1.6-1.6l-9.4-29.8l-3.1-12.5h-4.7l-3.1-1.6
		l-14.1-3.2l-3.1-1.6l-7.8-3.1l-3.1-1.6h-1.6l-1.6-1.6H4502l-26.6,3.1l-3.1-14.1l-3.1-12.5l-7.8-17.3v-1.6l-1.6-1.6v-1.6l-1.6-1.6
		l-15.6-23.6h-1.6v-1.6h-1.6l7.8-14.1l-28.1-17.3l-4.7-12.6l-25-15.7l-3.1-6.3l-7.8-7.9h-9.4v-1.6l-4.7-4.7l-17.2,14.1l-4.7-1.6
		l-10.9-9.4l-4.7-7.8h1.6l-7.8-14.1l-1.6-1.6l-31.2-18.8h-1.6l-3.1-4.7l-4.7-6.3l-3.1-11l1.6-3.1l4.7-6.3l-1.6-4.7l-1.6-1.6
		l-6.2-4.7l-3.1-3.1l-6.2-3.1l-10.9-4.7l-9.4-6.3l-9.4-7.8v1.6l-15.6-11l-3.1-4.7l-3.1-3.1h-1.6v-4.7l3.1-3.1l-9.4-3.1l1.6-7.8h1.6
		l1.6-7.9l6.3-23.5l1.6-6.3v-3.1l1.6-1.6v-1.6l6.2-25.1l7.8-14.1l1.6-1.6L4231.7,3025.2z"/>
	<path id="Marzahn-Hellersdorf_1_" class="st0" d="M5967.5,2449.4L5967.5,2449.4l-1.5,4.7h-1.6v-1.6h-1.6l-1.6,4.7h-1.6l-7.8-1.6
		h-7.8l-7.8-3.1l-7.8,3.1l-3.1,4.7l-18.8-6.3l-3.1,3.1l-4.7,3.1l-3.1,1.6l-15.6-3.1l-12.5-3.1l-4.7-1.6l9.4,64.3l-4.7,4.7l-6.2,4.7
		v3.1l3.1,20.4v3.1l3.1,14.1l1.6,7.8v1.6l3.1,12.5l1.6-3.1l9.4,3.1h3.1l37.5-6.3h3.1l6.3-1.6l14,1.6h40.6l17.2,1.6h25l10.9,1.6
		l9.4,4.7h4.7l7.8,3.1l12.5,1.6h4.7l9.4,1.6h7.8l15.6,1.6l10.9-1.6h1.6l14-1.6l62.5-1.6l1.6,11l1.6,7.9l4.7,18.8l4.7,14.1v7.8
		l1.6,3.1l3.1,3.1v3.1l-17.2,17.2l-12.5,11l-1.6,3.1l-3.1,1.6v1.6h-1.6l-34.4,23.5l-3.1,1.6l-29.7,20.4l-1.6,1.6l-15.6,9.4l-1.6,1.6
		l-29.7,22l-1.6,1.6l-17.2,12.6l-10.9,11l-14,15.7l-4.7,6.3l-26.6,26.7l-7.8,9.4l-6.2,7.9h-1.5l-3.1,4.7l-1.6,3.1l-10.9,15.7
		l-12.5,20.4v1.6l-9.4,22l-3.1,6.3l-1.5,1.6l-14.1,34.5l-1.6,3.2l-7.8,17.3l-3.1,9.4l-3.1,11l-1.5,6.3l-3.1,17.3l-3.1,11v3.1
		l-1.6,1.6l-3.1,23.5l-4.7,25.1l-1.6,11l-1.6,3.1l-1.5,11l-4.7,17.2l-6.3,17.3l-3.1,9.4l-10.9,26.7l-1.6,6.3l-3.1,7.8v1.6l18.8,9.4
		l10.9,3.1l31.2,6.3l-1.6,3.1l-7.8,9.4l-7.8,11l-1.6,1.6l-9.4,12.5l-15.6,22l-4.7,4.7v1.6l-21.9,29.8l-1.6,1.6l-26.6,36.1l-1.6,1.6
		l-20.3,28.2l-1.6,1.6l-20.3,28.2l-14.1,20.4l-1.6,1.6l-7.8,51.8l-1.5,3.1l-3.1,22v1.6l-1.6,11l12.5,3.1l1.6,1.5l6.2,1.6l3.1,1.6
		l1.5,1.6l6.3,4.7l-3.1,3.1l-1.6,3.1l-17.2,22v1.6l-12.5,15.7l-1.6,1.6l-9.4,12.6l-1.6,1.6l-7.8,11l1.6,1.6l-1.6,1.6l-31.2-9.4
		l-3.1-1.6l3.1-26.7v-3.1h-7.8l-15.6-1.6h-14.1l-9.4,1.6h-9.4l-12.5-9.4l-3.1-1.6l-17.2-14.1l-4.7-3.1v1.6l-15.6-15.7l-4.7-3.1
		l-12.5-12.6l-12.5-11h-1.6l-12.5-9.4l-3.1-3.1l-14.1-12.5l-9.4-6.3l-28.1-23.5l-14.1-11l-1.6-1.6l-7.8-6.3l-1.6-1.5h-3.1
		l-28.1,12.5l-3.1,1.6l-14.1,6.3l-9.4-7.8l-1.6-1.6l-12.5-9.4l-15.6,7.9l-3.1,3.1h-1.6l-21.9,11l-6.2,4.7l-1.6,1.6l-3.1,17.3
		l-1.6,7.8l-1.6,6.3l-3.1,6.3l-3.1,3.2v3.1l1.6,3.1v1.6l-1.6,1.6h-1.6l-3.1-4.7l-14.1,9.4h-1.6v1.6l-15.6,9.4l-1.6,1.6l-7.8,6.3
		h-3.1l-17.2,11l-4.7,9.4v1.6h-1.6l-4.7,1.6v1.6h-1.6l-7.8,1.6h-1.6l-1.6-3.1h-1.6l-1.6-3.2l-1.5,1.6l-9.4,3.1l-10.9,4.7l-12.5,1.6
		l-10.9,1.6h-37.5l-12.5-4.7l-12.5-1.6h-25l-6.2-1.6l-7.8-36.1l-4.7-22l-12.5-22l-12.5-25.1l-6.3-1.6v-47.1h3.1l9.4-22l7.8-11
		l3.1-11l1.6-3.1l-1.6-6.3l-3.1-6.3l-18.7-50.2l-18.8-51.8l-12.5-20.4l-3.1-4.7v-4.7l-4.7-36.1l-4.7-3.1l-1.6-3.1l1.6-3.1l1.6-1.6
		l-7.8-14.1l-12.5-22h-1.6l-3.1-1.6l-7.8-1.6l-14.1-1.6h-1.5v-1.6l-7.8-23.5l-12.5-34.5l-10.9-26.7l-14.1-36.1l7.8-9.4l3.1-6.3
		l-1.6-26.7l3.1-1.6l-1.6-18.8V2942l12.5,1.6h4.7v-22l-1.5-4.7v-6.3l-1.6-3.2l-1.6-1.5l-3.1-6.3l-7.8-7.8l-9.4-6.3l-3.1-3.1h-3.1
		l-4.7-1.6l-7.8-1.6l-4.7-1.6l-6.3,1.6h-26.6v-3.1h-43.8l-14-1.6h-1.6l-9.4-1.6h-7.8l-6.2,1.6h-20.3v1.6h-4.7v-3.1h-15.6v-11
		l1.6,1.6l1.6-34.5v-1.6l1.6-23.5v-1.6l1.6-23.5l1.6-26.7v-25.1l1.6-20.4v-3.1l-1.6-23.5v-29.8l-1.6-7.8l-1.6-26.7v-3.2l-1.6-37.6
		v-7.8l-1.6-14.1v-12.5l-1.6-7.9l-1.6-4.7l-15.6-31.4l-1.6-1.6l3.1-1.6h4.7l7.8-1.6l6.3-1.6h4.7l3.1,1.6l9.4-1.6h3.1l3.1-1.6h1.5
		l6.3-1.6h3.1l3.1-1.6l6.2-1.6l4.7-1.6l6.3-3.1l23.4-12.6l4.7-3.1l4.7-1.6l12.5-6.3l6.2-1.6l7.8-3.1l6.2-1.6l9.4-4.7l4.7-3.1v-3.1
		h3.1l-1.6-4.7h1.6l6.2-1.6l-6.2-6.3l-12.5-54.9v-3.1l-1.6-11l-3.1-11l-1.6-4.7l-3.1-17.3v-1.6l-4.7-18.8l-3.1-17.3l-1.6-1.6v-1.6
		l-9.4-42.4v-1.6l-1.6-9.4l-1.6-3.1v-1.6l-1.6-7.8l-1.6-6.3v-1.6l-1.6-3.1v-3.1l-3.1-7.8v-3.1l-6.2-18.8l-6.3-15.7l-3.1-6.3l1.6-1.6
		v-1.6l3.1-3.1l7.8-6.3l7.8-7.8l9.4-6.3l31.2-31.4l1.6-3.1l12.5-11l3.1-4.7l7.8-6.3v-1.6l4.7-4.7l12.5-15.7h1.6l51.6-67.5l3.1-3.1
		l4.7-7.8l3.1-3.1h1.6l12.5-3.1l12.5-6.3l1.6-1.6l7.8-3.1v-1.6l10.9-12.6v-1.6l1.6-1.6l18.8-6.3l14.1-6.3h1.6l6.2-1.6l3.1-1.6
		l29.7-11l34.4-14.1h1.6l48.4-18.8l3.1-3.1l32.8-11l4.7-3.1h1.6l17.2-11l3.1-1.6v-3.1l-3.1,1.6l17.2-25.1v3.1l6.2,12.5l1.6,7.8h6.2
		v-4.7l26.6,1.6l31.2-9.4h4.7l17.2,12.5l1.6,1.6l1.6,3.1l9.4,29.8h39.1l14.1,39.2v1.6l3.1,11l1.6,9.4l1.6,3.1v12.5l-3.1,7.8v18.8
		l1.6,7.8l1.6,1.6v1.6l1.6,3.1l1.6,4.7l1.6,3.1v9.4l-1.6,6.3v7.8l1.6,4.7l1.6,7.8l1.6,3.1v4.7l1.6,7.8l1.6,6.3l-1.6,9.4l1.6,7.8
		l1.6,4.7l1.6,3.1l3.1,4.7l10.9,15.7l3.1,3.1l1.6,3.1l1.6,4.7v3.1l1.5,7.8l6.3,12.5v1.6l1.5,4.7v14.1l1.6,3.1v28.2l-1.6,3.1v3.1
		l-1.5,4.7l-1.6,3.1l-3.1,9.4l-1.6,1.6v7.8l-3.1,12.5l-1.6,7.8v4.7l9.4,4.7l4.7,1.6l12.5,3.1l40.6,11l4.7,1.6l10.9,3.1l46.9,12.6
		l18.8,6.3l31.2,7.8l3.1,1.6l73.4,20.4l98.4,25.1h3.1l135.9,17.3l4.7,1.6l3.1,1.6l10.9,4.7l6.3,3.1l4.7,1.6h14.1l4.7,26.7l-25,42.4
		v1.6l-3.1-1.6L5967.5,2449.4z"/>
	<path id="Mitte_1_" class="st0" d="M3239.6,2973.4L3239.6,2973.4l-14.1,40.8l-1.6,1.6l-12.5,37.6l-3.1,1.6l-3.1-1.6l-3.1-3.1
		l-3.1-6.3l-3.1-4.7l-1.6,3.1l-4.7,14.1l-14.1,25.1l-3.1,3.1l-6.3,29.8l-12.5,17.3l-3.1,3.1l-4.7-1.6l-26.6-4.7l-3.1-1.6l-14.1-3.1
		h-3.1l-14.1-3.1l-6.3-3.1l-21.9-9.4l-4.7-3.1l-17.2-7.8l-4.7-3.2h-3.1l-23.4-9.4v-1.6l-18.8-6.3h-1.6l-4.7-3.1l-7.8-3.1l-1.6,1.6
		l-21.9-9.4l-9.4-4.7l-12.5-4.7l-20.3-9.4l-4.7-1.6l-12.5-4.7l-3.1-1.6l-12.5-4.7l-4.7-1.6l-10.9-4.7h-1.6l-6.3-1.6l-3.1-1.6h-4.7
		l-1.6-1.6h-3.1l-3.1,1.6h-3.1l-1.6-6.3l-3.1-7.8l-15.6,3.1h-4.7l-9.4-1.6h-1.6l-1.5-1.6l-15.6-11v-1.6l-3.1-1.6l12.5-25.1v-6.3
		l-1.6-1.6v-1.6l-1.6-1.6v-1.6h-1.6l-4.7-1.6l-1.6,1.6l-6.2-3.1l-34.4-18.8l26.6-14.1l6.2-3.2l3.1-3.1l3.1-1.6l3.1-6.3l-1.6-1.6v1.6
		l-25-9.4h-1.6l-3.1-1.6l-3.1-3.1l-1.6-3.1v-1.6h4.7l3.1-1.6l1.6,1.6h1.6v-1.6l6.2-3.1h1.6l37.5-3.1l1.6-9.4l1.6-3.1l-3.1,1.6
		l3.1-9.4l-3.1-1.6l-6.3-6.3v-3.1l-4.7-7.8l-6.2-22l-3.1,1.6h-17.2l-4.7-1.6l-6.2-3.1l-4.7-3.1l-9.4-9.4l-1.6-3.2l-3.1-3.1l-1.6-3.1
		l-3.1-9.4v-9.4l1.6-4.7l3.1-15.7v-15.7l-1.6-3.1v-3.1l-3.1-6.3l-1.6-1.6v-3.1l-3.1-3.1l-18.7-22l-6.3-6.3l-3.1-1.6l-4.7-1.6
		l-3.1-1.6l-1.6-1.6l-4.7-1.6l-3.1-1.6h-23.4l-3.1,1.6h-3.1l-4.7,1.6l-1.6,1.6l-9.4,4.7l-3.1,3.1l-1.5,3.1l-3.1,3.1l-4.7,9.4v3.1
		l-1.6,7.9v22l-6.3,9.4l-4.7,4.7l-10.9-9.4v-1.6l-14.1-61.2l-3.1-17.3v-3.1l-1.6-6.3l-15.6-70.6v-3.1l1.6-1.6l4.7-1.6h1.6l4.7-3.1
		l23.4-6.3l-1.6-4.7h1.6l1.6-1.6l3.1-4.7l-1.6-7.8l4.7-6.3h-4.7l-32.8,6.3l-3.1,1.6l-1.5-1.6l-3.1,1.6h-1.6l-1.6-4.7l-1.6-3.1
		l-3.1-4.7l-7.8-34.5l-3.1-17.3l156.2-36.1h4.7l4.7-1.6l12.5-3.1h4.7l3.1-3.1h1.6l-6.3-7.8l-4.7-7.8l-9.4-11v-17.3l1.5-3.1v-11
		l-7.8-4.7l-7.8-7.8l-3.1-4.7l-4.7-4.7l-15.6-20.4l-7.8-12.6l-6.2-6.3l-20.3-25.1l-9.4-12.6l-3.1-6.3l-6.2-4.7l-6.3-7.8l-29.7-3.1
		h-25l-17.2-1.6l-9.4-1.6l-40.6-3.1l-53.1-3.1l15.6-26.7l6.2-14.1l17.2-29.8l1.6-3.1l20.3-34.5l26.6-45.5l1.6-1.6l20.3-9.4l21.9-7.8
		l40.6-15.7l9.4-3.1l31.2-6.3l3.1-1.6l25-4.7l1.6-1.6h3.1l1.6-1.6h3.1l1.6-1.6l3.1-1.6l1.6-1.6l3.1-1.6l1.6-1.6l1.6-3.1l3.1-3.1
		l3.1-14.1l43.8,4.7l9.4,7.8l4.7-3.1l51.6-43.9l25,7.8h1.6l32.8,11l4.7,3.1l40.6,12.5l18.8,6.3v1.6l4.7,1.6h54.7l14.1-1.6h7.8
		l7.8,1.6l28.1,1.6l1.6,1.6l1.6,20.4v3.1l3.1-1.6l43.8-11l3.1,31.4l3.1,22h4.7l11-1.6l26.6-22l4.7-4.7l4.7-3.1l9.4-11h4.7l59.4-1.6
		h3.1v-4.7l7.8-45.5v-3.1l3.1-15.7v-3.1l3.1-20.4l1.6-3.1l26.6-4.7l1.6-1.6l31.2-20.4l4.7-1.6l34.4,7.8l6.3-6.3v1.6l1.5-1.6l4.7,4.7
		v1.6l-3.1,3.1l1.6,1.6v1.6l4.7,4.7l14.1,12.5v3.1l3.1,3.1v-1.6l3.1,1.6l20.3,18.8l1.6,1.6v1.6l9.4,14.1l4.7,6.3l12.5,25.1l4.7,14.1
		l1.6,11l1.6,7.8v1.6l3.1,17.3v7.8l1.6,1.6v6.3l1.6,26.7v4.7l3.1,20.4v6.3l1.6,1.6v9.4l1.6,4.7l1.6,6.3v4.7l1.6,3.1v6.3l-3.1,12.5
		l-3.1,6.3l-1.6,4.7l-1.6,1.6l-1.6,3.1l-3.1,3.1h3.1l18.8-3.1l3.1,25.1v6.3l9.4,31.4l1.6,11l1.6,4.7l4.7,15.7l4.7,14.1l10.9,39.2
		l6.2,17.3l4.7,17.3l1.6,4.7l7.8-3.1l4.7,3.1l4.7,15.7l3.1,14.1l3.1,12.5h1.6l1.6,4.7l1.6,3.1h-1.6l4.7,15.7l1.6-1.6l1.6,6.3
		l1.6,7.8l6.2,17.3l6.2,4.7l3.1,1.6l-1.5,3.1l-6.3,9.4l-4.7,9.4l-9.4,12.5v6.3l-3.1,15.7v3.1l-1.6,3.1l1.6,3.1l-1.6,4.7l-3.1,11
		l17.2,4.7l1.5,1.6l7.8,1.6l3.1,1.6l10.9,4.7l6.2,1.6l4.7,1.6l9.4,1.6l9.4,4.7l20.3,9.4l12.5,6.3l9.4,7.8h1.6l3.1,3.1h1.5v1.6
		l10.9,7.8l4.7,1.6l12.5,9.4l1.6,1.6l9.4,6.3l1.6,1.6l10.9,6.3l6.3,3.1l1.5,3.1l9.4,4.7l4.7,3.1l1.6,1.6l18.7,9.4h3.1l4.7,1.6v3.1
		l1.6,3.1h-6.2v1.6h-4.7l21.9,15.7l1.6,1.6l7.8,6.3l6.2,4.7h1.6l-3.1,9.4l-4.7,15.7v3.1h-10.9l-1.6-1.6l-4.7-1.6v1.6l-3.1,7.8
		l-4.7,7.9l-3.1,6.3h1.6l3.1,1.6l-1.6,3.1v1.6h4.7l1.6,1.6l-4.7,11l-4.7,15.7v1.6l-3.1,4.7v3.1l-7.8,20.4l-9.4,18.8v1.6l-1.6,3.1
		l-4.7,7.8v1.6l-1.6,1.6l-4.7,7.8l1.6,3.2h1.6l1.6,1.6v1.6h1.6l12.5,9.4l1.6,3.1l12.5,12.5l12.5,11l14,14.1v4.7l4.7-3.2l3.1,1.6v3.1
		l1.6,1.6l-3.1,9.4l-3.1,1.6l-4.7,14.1l-12.5,26.7l-4.7-3.1l-6.2,6.3l-6.2,3.1h-3.1l-3.1,1.6h-1.6l-3.1,1.6h-4.7l-4.7,1.6h-15.6
		l-3.1-1.6h-3.1l-21.9-9.4l-4.7,7.8l-1.6,1.6l-3.1,1.6h-4.7l-6.2,14.1l-3.1-1.6h-1.6l-4.7-3.1l-18.8-7.9l-3.1,1.6v3.1l-4.7,7.8
		l-1.6,3.1l-6.3-4.7l-17.2-9.4l-3.1-1.6l-1.6-3.1l-14.1-31.4l-18.8,11l-3.1,1.6l-1.6-3.1l-26.6-32.9l-7.8,4.7l-1.5,3.1v-1.6
		l-6.3-3.1l-10.9-9.4l-7.8-3.1l-6.3-4.7l-14.1-7.8l-9.4,23.5h-4.7l-46.9,4.7h-3.1l-17.2,1.6h-3.1l-17.2,1.6l-3.1,1.6l-48.4,3.1h-3.1
		l-59.4,6.3h-9.4l-12.5-15.7L3239.6,2973.4z"/>
	<path id="Neukölln_1_" class="st0" d="M4217.6,3583.7L4217.6,3583.7l-3.1-6.3v-7.9l3.1-14.1l4.7-22l3.1-17.3l-28.1-28.2
		l-71.9-84.7l-1.6-1.6l1.6-1.6l-17.2-18.8l-1.6-3.1l-12.5-12.6l-1.6-3.1l-20.3,25.1l-1.5,3.1l-25-21.9l-1.6-1.6l-25-20.4l-7.8-7.8
		l-1.6,1.6l-17.2-17.3v1.6l-1.6-1.6l-9.4-7.8l-1.6-1.6l-7.8-6.3l-25,26.7l-1.6-1.6l-12.5-11l-3.1-1.6l-7.8-7.9l-17.2-14.1l-7.8-7.9
		l-1.6,4.7h-3.1l-10.9-12.5l-29.7-15.7l-1.6-1.6l-45.3-23.5l-26.6-14.1l-3.1-1.6l-60.9-32.9l-7.8-3.1l-6.3-3.1l-7.8-1.6l4.7,7.8
		l7.8,22l1.6,3.1l6.2,17.3l1.6,3.1l3.1,11l1.6,3.1l6.2,15.7v3.1l6.2,12.6l1.6,4.7v3.1l10.9,26.7l1.6,3.1l-4.7,6.3l-10.9,18.8v6.3
		l-9.4-4.7l-20.3-9.4l-3.1-1.6l-25-4.7l-32.8-7.9l-14.1-3.1h-4.7l-3.1-1.6l-57.8-12.5l-1.6,3.2v3.1l3.1,3.2l4.7,20.4l-10.9,18.8
		l-3.1,3.1l-1.6,3.1l-1.6,4.7l-1.6,3.1v6.3l-1.5,3.1l-1.6,31.4l-1.6,3.1v14.1h-1.6v12.5l-1.6,4.7l1.6,14.1l6.2,23.5l-1.5,11l3.1,1.6
		l42.2,7.8v-4.7l26.6-14.1l28.1,171l4.7,37.7l1.6,15.7l1.6,9.4l46.9-7.9l3.1,1.6v11l1.6,7.8v20.4l1.6,11l3.1,3.1v4.7l-1.6,14.1v1.6
		l10.9,3.1l1.6,15.7l-18.7-3.1l-7.8,17.3l-1.6,4.7l25,14.1l17.2,11l20.3,20.4l-12.5,1.6h-12.5l-7.8,1.6l-6.3-1.6h-4.7l-12.5-1.6
		l-1.6,1.6l-1.6,4.7l-1.6,3.2l-9.4,22l-3.1,7.8l-7.8,14.1l-4.7,11l-7.8,15.7l-9.4-1.6l-4.7,14.1l-3.1,11l-3.1,26.7l-7.8,14.1
		l-3.1,25.1l-1.6,6.3l-6.3,11l-1.6,4.7l-4.7,20.4v1.6l-14.1,51.8l-9.4,42.4l-1.6,4.7l-3.1,15.7l-3.1,9.4l-1.6,7.8v14.1l-6.2,15.7
		l-6.3,17.3l-1.6,3.1v4.7l-1.6,6.3v4.7l-3.1,7.8L3552,4318l-4.7,12.5l-1.5,3.1l-1.6,4.7l-1.6,18.8v1.6l-4.7,20.4v7.8l-4.7,11
		l-1.6,6.3l-3.1,6.3l-12.5,26.7l-4.7,11l-3.1,6.3l-1.5,4.7v-1.6l-1.6,3.1v1.6l-3.1,4.7v1.6l-1.5,4.7l29.7,6.3l-6.2,31.4l-6.3,3.1
		l-43.8,17.3l-7.8,12.5l6.3,17.3v1.6l3.1,7.9l10.9,31.4l1.6,6.3l7.8,20.4v1.6l3.1,7.8l26.5-6.3l1.6-1.6l9.4-1.6l10.9-1.6l14.1-1.6
		h15.6l7.8,1.6l1.6,1.6l7.8,1.6l23.4,12.5l6.2,1.6l6.2,4.7l1.6,1.6l32.8,20.4l3.1,1.6l12.5,4.7v4.7l12.5-3.1l9.4-1.6l34.4-14.1
		l18.8-6.3l17.2-4.7l21.9-6.3v1.6l17.2-6.3l35.9-17.3l35.9-15.7h1.5l15.6-4.7l4.7-3.1l7.8-3.1l18.7-9.4l39.1-17.3l1.6-1.6l7.8-6.3
		l1.6-1.6l6.3-4.7l10.9-4.7l25-12.5l15.6-9.4l12.5-7.8l1.6-1.6l25-9.4l7.8-3.1l12.5-4.7h1.6l15.6-3.1l4.7-1.6l25-4.7h1.6l18.7,6.3
		l10.9,4.7l18.7,6.3v3.1l3.1,12.5v3.1l4.7,12.5v3.1l14.1,43.9l3.1,9.4l7.8,20.4l10.9,28.2l1.6,6.3l6.2,15.7l1.6,7.8l4.7,14.1
		l4.7,12.5l1.6,3.1v3.1l18.8,45.5l4.7,17.3l6.2,15.7l6.3,11v1.6l1.5,1.6v1.6l-1.5,4.7v4.7l1.5,1.6l4.7,20.4l4.7,12.5l3.1,12.5
		l3.1,25.1l6.3,47.1l12.5-6.3l28.1-11l31.2-9.4h3.1l18.8-3.1h3.1l12.5-1.6h4.7l25-7.8l15.6-4.7l7.8-1.6l25-4.7h1.6l9.4-3.1l25-6.3
		h1.6l25-4.7l28.1-4.7l21.9-6.3l60.9-17.3l25-9.4v-6.3l9.4-12.5l-3.1-7.9l28.1-28.2l-3.1-3.2l17.2-18.8l1.6-1.6l-1.6-1.6l4.7-6.3
		l3.1-4.7l4.7-6.2v-1.6l1.6-6.3l3.1-6.3v-3.1l1.6-3.1l7.8-31.4l1.6-7.9l-3.1-4.7l6.3-11l-6.3-7.8l4.7-4.7l-1.6-4.7l3.1-7.8l6.2-7.9
		l-1.6-1.6l-14.1-9.4v-1.6l-4.7-3.1l7.8-17.2l-1.6-4.7l-3.1-7.8l-3.1-12.6l-1.6-7.9l1.6-18.8l-14.1-18.8l-3.1-23.5l-4.7-3.1
		l-3.1-6.3l-3.1-1.6l-9.4-14.1l-1.6-4.7v-6.3l3.1-9.4l4.7-9.4l4.7-11l-1.6-1.6l7.8-17.3l3.1-7.8v-6.3l-6.2-3.2l-1.6-1.6h-3.1
		l-21.9-1.6l-12.5-1.6l-7.8-1.6h-3.1l-6.2-1.6l-4.7-1.6l-15.6-4.7l-6.2-1.6l-3.1-1.6l-6.3-1.6l-4.7-1.6l-6.2-3.1l-7.8-3.1l-4.7-3.1
		l-4.7-1.6l-9.4-6.3l-3.1-1.6l-6.2-4.7l-4.7-3.1l-3.1-3.1l-65.6-51.8l-15.6-12.5h-1.6l-3.1-1.6h-1.6l-3.1-3.1l-4.7-6.3l-23.4-18.8
		l-4.7-1.6l-29.7-23.5l-25-20.4l-1.6-3.1l-21.9-17.3l-15.6-12.6l-9.4-9.4l-6.3-1.6l-54.7-43.9l-4.7-4.7h-1.6v-1.6l-1.6-1.6v-1.6
		h-1.6l-15.6-12.6l-1.6-1.6h-3.1l-1.6-1.6l-92.2-73.7l-12.5-11l-6.2-4.7l-15.6-15.7l-4.7-6.3l-1.5-3.1l-3.1-3.1l-1.6-4.7l-1.6-3.1
		l-1.6-1.6h-1.5v-3.1l-1.6-1.6v-1.6l-4.7-11l-3.1-6.3v-1.6h-1.5l-3.1-6.3l-10.9-25.1l-14.1-36.1l-15.6-31.4l-1.6-6.3l-1.6-1.6
		l-1.6-6.3v-1.6h9.4l29.7,1.6l23.4,1.6h21.9l71.9,3.1h4.7l28.1,3.1v-7.9l6.2-18.8l3.1-11l14.1-18.8l3.1-4.7l12.5-29.8v-20.4
		l-1.6-1.6l-20.3-32.9l-3.1-3.2l-6.2-7.8l-4.7-4.7l-1.6-3.1l-14.1-22l-7.8-12.5v-1.6l-3.1-1.6v-1.6l-6.3-12.5l-15.6-23.5l-4.7-7.9
		v-1.6l-1.6-1.6L4217.6,3583.7L4217.6,3583.7z"/>
	<path id="Pankow_1_" class="st0" d="M3134.9,922.8L3134.9,922.8l1.6,1.6l1.6,4.7l6.3,17.3l15.6,31.4l3.1,4.7v1.6l17.2,34.5
		l12.5,28.2l4.7,14.1l1.6,3.1v3.1l10.9,25.1l1.6,1.6l9.4,26.7l4.7,12.6l3.1,22l3.1,25.1v23.5l-1.6,28.2l-4.7,12.5h1.6l-4.7,7.9
		l-6.3,14.1l-18.8,47.1l-3.1,6.3l-1.6,4.7l-15.6,39.2h-1.6v3.1l-4.7,9.4l-3.1,3.1l-1.6,3.1l-3.1,4.7l-10.9,14.1l-6.3,9.4l-1.5,1.6
		h-1.6l-1.5,3.1l-23.4,29.8l-14.1,20.4v1.6l-15.6,20.4l-23.4,31.4l-6.2,1.6l-9.4,1.6h-9.4l-26.6,3.1h-21.9l-20.3,1.6h-4.7l-12.5,3.1
		l-15.6,4.7l-12.5,4.7l10.9,9.4l6.2,6.3h9.4l-3.1,4.7l17.2,15.7l9.4,6.3l-1.6,1.6l17.2,14.1l43.8,40.8l3.1,1.6h1.6l6.3,3.1l4.7,4.7
		v1.6l15.6,15.7l9.4,7.9l14.1,14.1l4.7,3.1l4.7,4.7l1.6-4.7l3.1,3.1l1.6,3.1l3.1,4.7h1.5l4.7,3.1l4.7,4.7l4.7,6.3l10.9,9.4v1.6
		l9.4,6.3l-1.6,1.6l18.8,17.3l14.1,12.5l10.9,7.8l1.6-1.6l15.6,11l7.8,6.3l4.7,4.7l6.3,4.7l7.8,7.8v1.6l1.6,1.6l6.3,7.8l10.9,12.5
		l1.6-1.6h1.6l1.6,4.7l3.1-1.6l1.6,7.8l1.5-1.6l1.6,4.7l1.6,3.1l1.6-1.6v4.7h3.1l3.1,1.6l7.8,3.1l12.5,3.1h4.7l4.7-4.7l54.7,50.2
		l-4.7,6.3l15.6,15.7l-6.3,6.3l-1.5,3.1v1.6l1.5-1.6l4.7,4.7v1.6l-3.1,3.1l1.6,1.6v1.6l4.7,4.7l14.1,12.5v3.1l3.1,3.1v-1.6l3.1,1.6
		l20.3,18.8l1.6,1.6v1.6l9.4,14.1l4.7,6.3l12.5,25.1l4.7,14.1l1.6,11l1.6,7.8v1.6l3.1,17.3v7.8l1.6,1.6v6.3l1.6,26.7v4.7l3.1,20.4
		v6.3l1.6,1.6v9.4l1.6,4.7l1.6,6.3v4.7l1.6,3.1v6.3l-3.1,12.5l-3.1,6.3l-1.6,4.7l-1.6,1.6l-1.6,3.1l-3.1,3.1h3.1l18.8-3.1l3.1,25.1
		v6.3l9.4,31.4l1.6,11l1.6,4.7l4.7,15.7l4.7,14.1l10.9,39.2l6.2,17.3l4.7,17.3l1.6,4.7l7.8-3.1l4.7,3.1l4.7,15.7l3.1,14.1l3.1,12.5
		h1.6l1.6,4.7l1.6,3.1h-1.6l4.7,15.7l1.6-1.6l1.6,6.3l1.6,7.8l6.2,17.3l6.2,4.7l3.1,1.6l-1.5,3.1l-6.3,9.4l-4.7,9.4l-9.4,12.5v6.3
		l-3.1,15.7v3.1l-1.6,3.1l1.6,3.1l-1.6,4.7l-3.1,11l17.2,4.7l1.5,1.6l7.8,1.6l3.1,1.6l10.9,4.7l6.2,1.6l4.7,1.6l9.4,1.6l9.4,4.7
		l20.3,9.4l12.5,6.3l9.4,7.8h1.6l3.1,3.1h1.5v1.6l10.9,7.8l4.7,1.6l12.5,9.4l1.6,1.6l9.4,6.3l14.1-20.4l1.6-1.6l6.3-7.9l12.5-17.2
		h1.6l1.6-1.6l4.7,1.6h1.6l1.6,1.6l3.1-4.7h3.1l23.4-4.7l10.9-1.6l3.1-1.6l15.6-1.6l1.6-1.6l65.6-12.5l7.8-1.6l9.4,14.1h4.7
		l35.9-39.2l35.9,54.9l1.6,3.1l7.8,12.5l7.8,9.4l7.8-3.1l1.6-1.6l28.1-14.1l12.5-3.1l3.1-1.6v1.6l1.6,1.6v1.6l9.4,20.4l1.5,3.1
		l7.8,20.4l9.4,25.1l7.8,17.3l3.1,6.3l-7.8,17.3l35.9,9.4l3.1,1.6l37.5,12.5h3.1l42.2-6.3l4.7-1.6l21.9-1.6l3.1-1.6l10.9-1.6h6.3
		l9.4-1.6l-7.8-11l-4.7-9.4l-3.1-3.1l-3.1-4.7l-3.1-3.2l-1.6-3.1l-9.4-6.3l-4.7-4.7l-4.7-3.1l-6.2-3.1l-4.7-3.1l-18.7-4.7l-23.4-4.7
		l-12.5-6.3l-7.8-4.7l-4.7-1.6l-9.4-6.3l-6.2-3.1l-12.5-12.5l-18.8-29.8l-1.6-3.1l3.1-3.1h3.1l15.6-6.3l18.8-6.3l6.3-1.6l3.1-6.3
		v-1.6l1.6-1.6l3.1-6.3l9.4-17.3l10.9-22h1.5v-4.7l10.9-6.3v-1.6h1.6v-1.6l17.2-9.4l4.7-3.1l3.1-1.6h1.6v-1.6h1.6v1.6l15.6-12.6h1.6
		l-7.8-18.8l-3.1-6.3l-9.4-6.3l-6.3-3.1l4.7-9.4l1.6-1.6l7.8-18.8l-1.5-1.6v1.6l-3.1-1.6l28.1-34.5l-4.7-20.4l-1.6-9.4h-1.6
		l-3.1-20.4l-12.5-56.5l-1.5-3.1l-4.7-22l1.6-3.1h1.6l1.6-1.6l10.9,1.6l6.2,3.1l4.7,4.7h12.5l7.8,1.6h34.4l35.9,1.6l10.9,1.6h4.7
		l9.4-9.4l-3.1-7.8l-4.7-7.8v-3.1l-3.1-3.1l3.1-6.3l4.7,3.1l1.6-1.6h1.6v1.6h15.6v-1.6h1.6l1.6-1.6h1.6l14.1-17.3v-1.6l1.6-1.6
		l20.3-23.5l3.1-4.7l9.4,3.1l34.4,9.4l1.6,1.6h3.1l35.9,12.5l4.7,3.1l9.4-36.1l1.6-3.1v-3.1l1.5-1.6v-9.4l1.6-1.6v-3.1l-1.6-3.1
		v-9.4l-1.5-3.1v-3.1l-1.6-3.1v-1.6l-1.5-3.1v-3.1l-1.6-3.1l-1.6-1.6l-4.7-9.4l-9.4-14.1l-10.9-20.4l-3.1-4.7l-3.1-7.8l-3.1-4.7
		l-1.6-1.6l-1.6-3.1l-4.7-4.7l-3.1-1.6l-4.7-3.1l-3.1-3.1l-18.7-9.4l-18.8-6.3h-4.7l-4.7-1.6l-3.1-4.7l1.5-7.8l3.1-3.1l3.1-17.3
		v-1.6l3.1-11h-3.1l-23.4-4.7v-1.6l4.7-14.1v-11l1.6-1.6l-6.2-1.6l1.6-1.6l25-34.5l15.6-17.3l-18.7-15.7l-20.3-17.3l-10.9-7.8
		l1.6-1.6l-1.6-14.1l-1.6-1.6v-1.6h-1.6l-3.1,1.6h-4.7l-3.1-1.6h-15.6l-3.1-1.6h-3.1v-11h3.1l1.6-3.1l-3.1-1.6v-7.8l1.6-4.7v-3.1
		l1.6-3.1l1.6-6.3v-1.6l-3.1-1.6v-4.7l1.6,1.6V1759h6.2v-1.6h-1.6l-1.6-1.6l-1.6-12.5h1.6l-1.6-11l-3.1-6.3v-29.8l1.6-4.7l1.6-9.4
		v-6.3l3.1-7.8l1.6-7.8v-3.1l12.5,4.7l3.1-12.5l17.2-1.6l1.6-6.3l6.3-20.4h3.1l6.2-23.5l3.1-6.3v-3.1l3.1-6.3l1.6-1.6l1.6-3.1
		l1.6-1.6l6.2-9.4l9.4-11l3.1-3.1h1.5l1.6-1.6l1.6-3.1l1.5-1.6l3.1-1.6l6.2-4.7l96.9-62.8h1.6l65.6-43.9h1.6l1.6-1.6l-1.6-1.6
		l-40.6-94.1l-23.4-54.9l-23.4,1.6h-1.6l6.2-28.2v-6.3l10.9-54.9l3.1-7.8v-1.6l3.1-11v-1.6l3.1-7.8l3.1-6.3l9.4-25.1l3.1-12.6
		l3.1-9.4l3.1-11l10.9-31.4l10.9-25.1v-3.1l4.7-4.7l10.9-6.3h1.6l-1.6,1.6l-9.4,4.7l-4.7,4.7l3.1-1.6l15.6-9.4l3.1-1.6v-3.1
		l-1.6,1.6l-4.7,1.6l3.1-3.1l3.1-1.6l1.6-18.8l3.1-81.6l20.3-14.1l1.6-1.6l29.7-17.3l6.3-3.1l17.2-6.3l15.6-7.8l35.9-17.3l6.2-34.5
		v-3.1l6.3-18.8l7.8-29.8l3.1-11l1.6-1.6l1.6-3.1l1.6-4.7l4.7-20.4l1.6-11l4.7-14.1l1.6-6.3l1.6-4.7l6.3-31.4l1.6-4.7v-12.6
		l3.1-26.7l1.6-14.1v-17.3l-6.3,1.6h-6.3l-14,1.6l-4.7-11l-3.1-9.4v-3.1l-1.6-1.6v-1.6l-1.6-6.3l-1.6-3.1l-7.8,1.6l-7.8,3.1
		l-6.3,1.6l-9.4,3.1l-12.5,4.7l-6.2,3.1l-17.2,9.4l-9.4-7.8l-15.6-12.5l-1.6-1.6l-4.7-3.1l-15.6-15.7l-12.5-9.4l-1.6-1.6l-25-20.4
		l-17.2-7.8l-4.7-3.1l-12.5-7.8l-6.3-4.7l-4.7-3.1l-29.7-18.8l-25-15.7l-9.4-6.3l-21.9-14.1l-6.3-3.1l-10.9-7.8l-29.7-36.1l-1.5-1.6
		l-28.1-31.4l3.1-15.7v-1.6l4.7-23.5v-1.6l4.7-25.1l10.9-70.6v-1.6l4.7-22v-1.6l6.2-42.4l-32.8,20.4h-1.6l-15.6,6.3l-12.5,6.3
		l-14.1,6.3l-1.6,1.6l-26.6,11l-26.5,20.4l-1.6,1.6l-1.5-3.1v-14.1l-1.6-1.6v-3.1l-1.6-1.6v-1.6l-6.3-9.4v-4.7l17.2-45.5l6.2-11
		l3.1-3.1l12.5-20.4l15.6-28.2l3.1-1.6l-1.6-1.6L4327,52l-25,28.2l-9.4-9.4h-1.6l-3.1-4.7l-1.6-3.1l-3.1-1.6v-1.6l-1.6,1.6l-7.8,11
		L4263,86.5l-29.7,42.4h-1.6l-50,69l-1.6-1.6l-29.7-14.1l-35.9-17.3l-42.2,56.5l-4.7,3.1l-35.9,39.2l-1.6,1.6l-7.8,9.4l32.8,14.1
		l37.5,31.4l3.1,1.6l48.4,43.9h3.1l90.6,12.6l3.1,1.6l21.9,3.1v1.6l1.6,1.6l3.1,6.3l3.1,4.7l-1.6,1.6v4.7l-1.6,7.8v6.3h1.6v1.6
		l-1.6,3.1v1.6l-3.1,3.1v1.6h-3.1l-4.7,4.7h-3.1v1.6h-1.6l-1.6,1.6l-3.1,1.6l-1.5,3.1l-1.6,1.6h-1.6l-3.1,3.1l-1.6,3.1l-1.6,1.6
		l-6.2,4.7l-6.2,9.4h-1.6l-4.7,3.1h-3.1l-3.1-1.6l-1.6,1.6h-3.1l-7.8,1.6l-1.6-1.6h-4.7l-1.6,1.6l-3.1,1.6l-1.6,1.6l-6.2,3.1
		l-9.4,9.4h-1.6l-4.7,3.1v1.6h-1.6l-4.7,3.1l-6.2,4.7l-3.1,4.7l-3.1,7.8v1.6l-1.6,1.6l-1.6,3.1h-4.7l-4.7,1.6l-4.7,3.1l-6.3,1.6
		l-1.5,3.1l-4.7,4.7l-34.4-6.3h-1.6l-43.7-4.7v-17.3h-6.2v-1.6h-1.6l-3.1-1.6l-18.7-3.1l-15.6-1.6l-4.7,1.6h-3.1l-1.6,1.6h-3.1
		l-3.1,1.6l-1.6,1.6h-3.1l-6.2,3.1h-21.9l-1.6,3.1h-3.1l-1.5,4.7l-10.9,1.6V507h-1.6l-7.8,1.6l-10.9,70.6h-7.8l-1.6,1.6l-21.9,4.7
		l-3.1,1.6h-1.6l-3.1,1.6h-4.7l-4.7,3.1h-1.5l-3.1,1.6l-6.3,1.6l-6.2,4.7l-3.1,34.5l1.6-1.6l6.3-4.7l-1.6,6.3l-3.1,1.6v-3.1
		l-3.1,3.1l1.6,7.8l4.7,37.7l1.6,11l1.6,14.1l-15.6,9.4l-54.7-1.6l-9.4,9.4l-25,23.5v1.6l-4.7-4.7l-32.8-28.2l-17.2-14.1l-23.4-18.8
		l-3.1-3.1l-7.8-9.4l-7.8-11l-6.2-7.9l4.7-11l-1.6-12.5l-3.1-3.1H3627l-10.9-15.7l-34.4,11l-6.3,1.6l-3.1,1.6h-1.6l-4.7,1.6
		l-3.1-4.7v-1.6l-10.9-14.1l-28.1-18.8l-21.9-20.4l-23.4-23.5l-15.6-14.1v-3.1h-1.6l-3.1,1.6h-1.6l-3.1,3.1l-1.6,3.1l-1.6,1.6v1.6
		l-1.6,1.6l-3.1,1.6l-1.6,1.6l-1.6-1.6h-1.6v-1.6l-1.6,1.6v1.6l-1.5,1.6h-1.6l-4.7-1.6l-1.6-1.6h-3.1l-1.6,3.1l-1.6,1.6v3.1h-1.6
		v1.6l-3.1,3.1l-1.6,3.1v9.4h-7.8l-1.6,1.6h3.1v4.7h-4.7v4.7l1.5-1.6l1.6,1.6v1.6h-3.1l-1.6-1.6l-1.6,1.6l3.1,1.6h1.5v1.6h-4.7v1.6
		l-1.6,1.6v3.1h-1.6l-1.6,1.6l1.6,1.6h1.6l1.6,3.1l-1.6,1.6l-1.6-3.1l-1.6,1.6l1.6,1.6l-1.6,1.6h-1.6l1.6,3.1h3.1v1.6h-1.6l-3.1,3.1
		h4.7l1.6,1.6v1.6h-3.1l-3.1-1.6l-3.1,3.1h6.2l1.6-1.6h1.6v1.6l-1.6,1.6v1.6h1.6v1.6h-1.6v1.6l-1.6-1.6V609l-1.6,1.6h-1.6l-4.7-3.1
		v6.3h-3.1v4.7l-3.1,3.1v1.6l1.5,1.6v1.6h-1.5l0,0h-6.3l1.6,1.6h1.6l1.6,1.6v1.6l-3.1,1.6h-1.6v1.6l3.1,3.1h-1.6l-3.1,3.1v3.1h1.6
		l1.6-1.6v1.6l-1.6,1.6h-3.1v-1.6l-1.6-1.6v1.6h-1.6l1.6,3.1v1.6h3.1v3.1l1.6,1.6v9.4h1.6l1.6,1.6v4.7l-1.6,1.6l0,0h1.6v1.6h-3.1
		v1.6l-1.6,1.6v3.1l-1.6,1.6h-3.1v1.6h1.6l1.6,3.1v1.6h-3.1l1.6,1.6l-1.6,1.6v1.6h1.6V689h1.6v4.7h-3.1v1.6l-1.6,1.6l-1.6,3.1
		l-3.1,1.6l1.6,1.6h1.6v3.1h-3.1l1.6,1.6v3.1h-6.2l-3.1,3.1l1.6,1.6v1.6l-1.6,1.6h-4.7l-1.6-1.6h-1.6v1.6l-1.6,1.6h-1.6l0,0
		l-1.6,1.6h-3.1v-1.6h-1.6v4.7l-1.6,1.6h-1.6l-3.1-1.6v1.6h-1.6v1.6l-1.6,1.6h-1.5v-1.6h-1.6l0,0l-1.6,1.6h-3.1v1.6h1.6v3.1h-3.1
		v-1.6h-1.6v-1.6l-3.1,3.1v-1.6l-1.6-1.6h-3.1l-1.6-1.6h-1.6v1.6h-1.6v-1.6l-1.6-3.1h-1.6l-1.6,3.1v3.1h-3.1v-1.6l-1.6-1.6h-4.7
		l-3.1,3.1h-1.6l3.1,3.1v3.1h-1.6l7.8,3.1l1.6,9.4l-14,6.3l-10.9,6.3l-3.1,1.6h-1.5l1.5,3.1h-1.5l-6.3,6.3l-7.8-7.9v1.6l-4.7,4.7
		l-6.2,9.4v6.3h-4.7l-4.7,4.7v1.6h4.7v1.6l-3.1,3.1h-3.1l-1.6,1.6l3.1,1.6h1.6v1.6h-1.6l-1.6,1.6h-1.6v4.7h-1.6l-4.7,3.1v1.6h1.6
		v1.6h1.6l1.6,1.6v3.1h-1.6l1.6,6.3l1.6,4.7v1.6l1.6,3.1v3.1l4.7,4.7l-1.6,1.6v3.1h-1.6l1.6,3.1v1.6l-1.6,3.1l-3.1-3.1l-1.6,1.6v1.6
		l3.1,1.6v1.6h-4.7l-3.1-3.1l-1.5,1.6l4.7,4.7l1.6,3.1v3.1l-1.6,1.6l-3.1-1.6h-1.5v-1.6l-3.1-3.1h-1.5l-1.6,1.6v3.1l-1.6,3.1
		l-1.6,1.6l-1.6,3.1l-1.6-1.6v4.7l-4.7-3.1v4.7h-1.6l-3.1-3.1l-4.7,4.7h-1.6l-1.6,1.6l-1.6-1.6h-1.6l-1.6,1.6l-1.6,3.1h-4.7
		l-3.1-1.6v3.1l-1.6,1.6l-3.1-1.6l-3.1-3.1l-1.6,1.6l-3.1,4.7h-3.1v4.7l-3.1,1.6v3.1h-1.6v3.1l-1.6,1.6v3.1h-4.7v3.1l-3.1,3.1
		l-3.1,1.6l-3.1-1.6h-1.6l-1.5,1.6l-3.1-1.6v-6.3l-3.1,3.1h-1.6v1.6h-1.6v-1.6h-1.6v4.7l1.6,1.6L3134.9,922.8L3134.9,922.8z"/>
	<path id="Reinickendorf_1_" class="st0" d="M2886.5,957.3L2886.5,957.3l4.7-6.3l28.1,3.1l46.9-4.7l3.1,18.8h1.6v-1.6l1.6-1.6v-1.6
		h4.7l1.6,1.6v3.1h1.6v-1.6h1.6v-1.6l-1.6-1.6l6.2-6.3h1.6v1.6h1.6l3.1-3.1h3.1v1.6h4.7v-3.1h7.8l3.1,3.1h1.6l3.1,3.1h3.1l1.6-1.6
		l1.6,1.6v1.6h4.7l1.6-1.6l1.6,1.6h1.5l3.1,3.1h1.5V962l1.6-1.6v-1.6h1.6l1.6,1.6v1.6h1.6v-3.1l1.6-1.6h4.7v1.6h3.1v-4.7l3.1-4.7
		l1.6-1.6v-1.6h3.1v3.1h6.3l-1.6-1.6v-1.6h4.7v-3.1l1.6-1.6h9.4l3.1-3.1v-1.6h3.1v-3.1l1.5-1.6h4.7l3.1-1.6h1.6l1.6-1.6v-1.6
		l1.6,1.6l-1.6,1.6h3.1l1.6,1.6l-1.6,1.6v1.6h1.6v-1.6l1.6-1.6h3.1l1.5,1.6h1.6v-3.1l-1.6-3.1l-1.5-1.6h6.2v-3.1h1.6l1.6-1.6
		l3.1,3.1h1.6v-3.1l1.6,1.6h1.6v-1.6l3.1,3.1h1.6l3.1,1.6l1.6-3.1l1.6,1.6l1.6,4.7l6.3,17.3l15.6,31.4l3.1,4.7v1.6l17.2,34.5
		l12.5,28.2l4.7,14.1l1.6,3.1v3.1l10.9,25.1l1.6,1.6l9.4,26.7l4.7,12.6l3.1,22l3.1,25.1v23.5l-1.6,28.2l-4.7,12.5h1.6l-4.7,7.9
		l-6.3,14.1l-18.8,47.1l-3.1,6.3l-1.6,4.7l-15.6,39.2h-1.6v3.1l-4.7,9.4l-3.1,3.1l-1.6,3.1l-3.1,4.7l-10.9,14.1l-6.3,9.4l-1.5,1.6
		h-1.6l-1.5,3.1l-23.4,29.8l-14.1,20.4v1.6l-15.6,20.4l-23.4,31.4l-6.2,1.6l-9.4,1.6h-9.4l-26.6,3.1h-21.9l-20.3,1.6h-4.7l-12.5,3.1
		l-15.6,4.7l-12.5,4.7l10.9,9.4l6.2,6.3h9.4l-3.1,4.7l17.2,15.7l9.4,6.3l-1.6,1.6l17.2,14.1l43.8,40.8l3.1,1.6h1.6l6.3,3.1l4.7,4.7
		v1.6l15.6,15.7l9.4,7.9l14.1,14.1l4.7,3.1l4.7,4.7l1.6-4.7l3.1,3.1l1.6,3.1l3.1,4.7h1.5l4.7,3.1l4.7,4.7l4.7,6.3l10.9,9.4v1.6
		l9.4,6.3l-1.6,1.6l18.8,17.3l14.1,12.5l10.9,7.8l1.6-1.6l15.6,11l7.8,6.3l4.7,4.7l6.3,4.7l7.8,7.8v1.6l1.6,1.6l6.3,7.8l10.9,12.5
		l1.6-1.6h1.6l1.6,4.7l3.1-1.6l1.6,7.8l1.5-1.6l1.6,4.7l1.6,3.1l1.6-1.6v4.7h3.1l3.1,1.6l7.8,3.1l12.5,3.1h4.7l4.7-4.7l54.7,50.2
		l-4.7,6.3l15.6,15.7l-6.3,6.3l-1.5,3.1l-6.3,6.3l-34.4-7.8l-4.7,1.6l-31.2,20.4l-1.6,1.6l-26.6,4.7l-1.6,3.1l-3.1,20.4v3.1
		l-3.1,15.7v3.1l-7.8,45.5v4.7h-3.1l-59.4,1.6h-4.7l-9.4,11l-4.7,3.1l-4.7,4.7l-26.6,22l-11,1.6h-4.7l-3.1-22l-3.1-31.4l-43.8,11
		l-3.1,1.6v-3.1l-1.6-20.4l-1.6-1.6l-28.1-1.6l-7.8-1.6h-7.8l-14.1,1.6h-54.7l-4.7-1.6v-1.6l-18.8-6.3l-40.6-12.5l-4.7-3.1l-32.8-11
		h-1.6l-25-7.8l-51.6,43.9l-4.7,3.1l-9.4-7.8l-43.8-4.7l-3.1,14.1l-3.1,3.1l-1.6,3.1l-1.6,1.6l-3.1,1.6l-1.6,1.6l-3.1,1.6l-1.6,1.6
		h-3.1l-1.6,1.6h-3.1l-1.6,1.6l-25,4.7l-3.1,1.6l-31.2,6.3l-9.4,3.1l-40.6,15.7l-21.9,7.8l-20.3,9.4l-1.6,1.6l-26.6,45.5l-20.3,34.5
		l-1.6,3.1l-17.2,29.8l-6.2,14.1l-15.6,26.7h-6.2l-46.9-1.6h-4.7l-254.7-7.8l-15.6-1.6l1.6,1.6h-4.7l-17.2-1.6h-40.6l-29.7-1.6
		h-15.6l-18.8-1.6l-25-3.1l-10.9-3.1l-23.4-9.4l-7.8-4.7l-6.3-3.1l-6.2-4.7l-6.3-3.1l-12.5-11l-1.6-1.6l-3.1-1.6l-82.8-69v1.6
		l-3.1-1.6l-15.6-14.1l-1.6-1.6l-3.1-1.6v-4.7l-6.3-3.1h-1.6l-54.7-45.5l-10.9-11l-7.8-9.4l-3.1-4.7l-1.5,1.6l-25-29.8l-3.1-4.7
		l-1.6-4.7v-9.4l6.3-15.7l1.6-6.3v-14.1l-1.6-4.7l-1.6-3.1l-4.7-6.3l-3.1-4.7l-1.5-1.6l-3.1-6.3l-3.1-28.2l-15.6-31.4l-1.6-6.3
		l1.6-20.4l-1.6-4.7l-6.3-11l-7.8-9.4l-29.7-23.5l-12.5-15.7l-14.1-22l-4.7-15.7l1.6-43.9l-12.5-34.5l-14.1-23.5l1.6-12.5l7.8-9.4
		l9.4-33l18.8-62.8v-4.7l-4.7-15.7l-9.4-17.3l-29.7-29.8l-37.5-31.4l-31.2-36.1l-9.4-12.5l-3.1-6.3l-9.4-17.3l-6.2-11l-3.1-4.7
		l-7.8-11l-21.9-26.7l-3.1-4.7l-4.7-12.5l-3.1-12.6v-15.7l3.1-9.4l1.6-1.6l3.1-4.7l4.7-1.6l14.1-6.3l9.4-4.7l10.9-7.8l9.4-9.4
		l12.5-26.7l18.8-34.5l17.2-32.9l15.6-34.5l21.9-47.1l20.3-15.7l17.2-42.4l14.1-31.4l3.1-12.5l1.6-12.6l1.6-18.8l1.6-4.7l3.1-11
		l-1.6-4.7v-4.7l26.6,3.1l12.5-4.7l4.7,1.6l6.2,3.1l-1.5-4.7l6.2,3.1h3.1l-1.6,4.7v3.1h6.3l7.8,3.1l9.4,1.6l23.4,3.1l26.6-1.6
		l29.7-4.7h32.8l17.2-1.6l7.8-4.7l6.3-1.6l4.7-1.6h3.1l9.4,3.1l12.5,4.7l6.2,4.7l10.9,6.3l17.2-1.6l3.1,1.6l12.5-3.1l14.1,1.6
		l12.5,1.6h7.8l7.8-1.6l10.9-1.6l15.6-1.6h10.9l3.1-1.6l15.6-1.6h18.8l15.6,4.7l6.3,3.1l10.9,1.6l9.4,6.3v-9.4l1.6-17.3v-1.6
		l1.6-14.1V849l1.6-18.8v-1.6l1.6-17.3l1.6-14.1v-4.7l3.1-32.9l-4.7-22l-1.6-6.3l-1.6-3.1l-6.3-17.3l-1.6-1.6l-9.4-17.3V689
		l-1.6-3.1l-1.6-1.6v-3.1l-1.6-3.1v-1.6l-1.6-12.6h1.6l-1.6-12.6l45.3,11l32.8,7.8l14.1-1.6l9.4-1.6l25-7.8l25,1.6l3.1-1.6v1.6
		l4.7-1.6l35.9-9.4l18.8-3.1h9.4l4.7-1.6v-9.4l4.7-47.1v-9.4l1.6-12.5l1.6-17.3v-23.5l-3.1-7.8l3.1,1.6h1.6l4.7-47.1l1.6-28.2
		l-34.4-1.6l3.1-37.7v-3.1l6.3-98.8l12.5,3.1l15.6,3.1l4.7,1.6l7.8,3.1l6.2,3.1l1.6-1.6h3.1l1.6,3.1l4.7-3.1l9.4,1.6l10.9,1.6
		l31.3,6.3l4.7,3.1h75l9.4,1.6h15.6l17.2-3.1l26.6-3.1l1.6,4.7l4.7,6.3l7.8,9.4l3.1,3.1l-1.6,4.7l1.6,1.6l3.1,1.6l1.6,3.1l4.7,4.7
		l3.1-1.6v1.6l-18.7,12.5l-31.2,20.4l-1.6,1.6l-50,33l56.2,113l9.4,20.4l3.1,4.7l15.6,31.4l7.8-3.1v1.6l1.6,18.8v1.6h-3.1l1.6,12.6
		h-3.1v9.4l-3.1,4.7l-1.6,1.6l-3.1,6.3v9.4h-1.6l-1.6,1.6h-6.2v7.8h-10.9l6.3,17.3v9.4l1.6,6.3v3.1l-10.9,3.1l-3.1,1.6l3.1,6.3
		l1.6,7.8l14.1,28.2l1.6,1.6l7.8,14.1l1.6,7.8l4.7,6.3l6.2,12.5l1.6,4.7v3.1l3.1,15.7l1.6,9.4h-4.7v7.8l6.2,3.1l-6.2,9.4l-9.4,4.7
		l-25,7.8h-3.1l-3.1,1.6l-10.9,7.8l-7.8,1.6l-10.9,4.7l-6.2,4.7l1.6,6.3l31.2-7.8l15.6-1.6l3.1-1.6l12.5-3.1h7.8l18.8-1.6l3.1-1.6
		h18.7l10.9,4.7l9.4,4.7l17.2,6.3l6.3,1.6l17.2,7.8h1.5l6.3,1.6l26.6,3.1l14.1,1.6h1.6l12.5,4.7l7.8,3.1l14.1,4.7h4.7l14.1,4.7
		l9.4,4.7l17.2,11l9.4,6.3l4.7,1.6l3.1-1.6l40.6,26.7l4.7-1.6l3.1-1.6l4.7-1.6h6.3l1.6-6.3h1.6l6.2,3.1l3.1-3.1l3.1,1.6h3.1l3.1,1.6
		l7.8-3.1l1.6,1.6l1.6-1.6l3.1,1.6l1.6-1.6l3.1,1.6l1.6-1.6l4.7-3.1l3.1,3.1l1.6-3.1L2886.5,957.3z"/>
	<path id="Spandau_1_" class="st0" d="M1208.4,3687.3L1208.4,3687.3l-14.1,69.1l-45.3,51.8l-37.5,64.3l-70.3-3.1l-96.9,65.9
		l-1.6,1.6l-40.6,50.2l-32.8,42.4l-4.7,4.7l-62.5,54.9l-134.4,17.3l-28.1,4.7l-15.6,17.2l-10.9-6.3l-12.5,1.6l-15.6,6.3l-12.5-3.1
		l-31.2,7.8l-9.4,18.8l-34.4-34.5l-1.6-3.1l-4.7-12.5l-3.1-7.8v-6.3l1.5-9.4l-1.5-3.1l-7.8-7.8l-9.4-6.3l-7.8-6.3l-14.1-9.4
		l-7.8-12.6l-9.4-12.5l-6.2-7.9l-15.6-21.9l-9.4-11l-6.2-11l-7.8-11l4.7-12.5l10.9-18.8l4.7-11l6.2-14.1v-1.6l1.6-7.9l1.6-11
		l1.6-9.4l1.6-11l3.1-25.1l-1.6-20.4l-10.9-81.6v-56.5l57.8-95.7l7.8-28.3l4.7-12.5v-47.1l29.7-6.3l6.3-1.6l6.3-3.1h4.7l15.6-4.7
		l26.6-6.3l3.1-3.1l18.8-17.3l15.6-20.4l62.5-78.5l54.7-69l93.7-117.7l18.8-18.8l12.5-14.1l1.6-1.6l17.2-20.4l32.8-39.2l14.1-15.7
		l7.8-7.8l14.1-12.6l21.9-25.1l25-28.2l23.4-23.5l6.2-7.8l3.1-4.7l9.4-4.7l-28.1-17.3l-23.4-12.5l-6.2-4.7l-10.9-6.3l-23.4-15.7
		l-17.2-11l-9.4-1.6l-20.3-12.6l-6.2-3.1v-1.6l-6.2-3.1l-4.7-3.1l-12.5-9.4l-12.5-11l-17.2-9.4l-28.1-18.8l-9.4-3.1l-9.4-1.6
		l-6.3-11l-3.1-11l-4.7-7.8l-7.8-6.3l-4.7-3.1l-4.7-1.6l-4.7,1.6h-3.1l-17.2,3.1l-18.8,6.3l-12.5,4.7l-12.5,1.6h-1.6l-4.7,1.6
		l-18.7,3.1h-1.6l-1.6,1.6l-4.7,1.6l-6.3,1.6h-3.1l-3.1,1.6h-1.6l-6.3-1.6l-31.2,7.9l-14,1.6l-1.6,1.6h-17.2l-25,1.6l-25,4.7
		l-12.5,3.2l-20.3-3.2l10.9-70.6v-6.3l1.6-29.8l1.6-14.1l1.6-20.4l3.1-25.1v-25.1l1.6-12.6v-11l1.6-4.7l3.1-14.1l1.6-7.8l3.1-11
		l3.1-9.4l9.4-18.8v-6.3l1.6-1.6l1.6-9.4l3.1-9.4v-3.1l3.1-6.3l1.6-1.6l3.1-9.4l7.8-14.1l1.6-4.7l3.1-14.1v-4.7l3.1-7.8l1.6-6.3
		v-3.1h1.6l7.8-39.2l6.2-34.5l1.6-4.7l-6.3-4.7l3.1-11l3.1-20.4l6.2-17.3l3.1-6.3l4.7-22l4.7-15.7l3.1-7.8l1.5-3.1v-3.1l1.6-9.4
		l9.4-29.8l4.7-18.8l1.6-1.6l7.8-29.8l3.1-11l1.6-4.7l7.8,6.3l9.4,9.4l3.1,4.7l9.4,12.5l1.6,3.1l9.4,11l20.3,11h3.1l18.8,3.1h1.6
		l12.5,1.6h18.8l1.6,1.6l9.4,1.6l7.8,3.1h10.9l3.1-7.8l3.1,1.6l3.1-1.6l7.8-6.3l1.6-7.8l6.2-12.6l3.1-3.1l1.6-7.8l1.6-1.6v-1.6
		l1.6-17.3l-4.7-20.4v-26.7l-3.1-11l-3.1-3.1l-1.6-17.3l-3.1-4.7l1.6-4.7l12.5-9.4l3.1-17.3v-26.7l1.6-7.9l1.5-6.3l3.1-4.7l1.6-3.1
		l4.7-6.3l14.1-20.4l1.6-6.3l3.1-15.7l9.4-20.4l1.6-14.1l9.4-6.3l1.6-1.6l3.1-9.4l1.6-1.6l1.6-9.4v-7.8l-1.6-6.3l7.8-14.1v-22
		l1.6-4.7l-1.6-11l1.6-4.7l-1.6-17.3l1.6-12.5l-1.6-7.9l-3.1-6.3v-12.6l-3.1-6.3l-6.3-14.1l-1.6-6.3l-1.6-1.6l-6.2-18.8v-11
		l-7.8-6.3l-6.2-4.7l-4.7-9.4l-12.5,6.3l-14.1,6.3l-12.5,4.7l-12.5,6.3l-7.8,7.8l-9.4,1.6l-10.9,3.1l-20.3,9.4l-9.4,6.3l-18.8-1.6
		l-9.4,4.7l-4.7,1.6l-6.2,1.6h-1.6l-29.7,7.8l-1.6-1.6l-4.7-3.1l-3.1-6.3l-4.7-12.5l-1.6-12.6l-6.3-20.4l-3.1-4.7l-3.1-3.1h-3.1
		l-7.8,1.6h-9.4l14-48.6l-9.4-1.6l6.2-22l21.9,6.3h17.2l29.7-7.8l3.1-1.6l7.8-6.3l15.6-15.7l3.1-1.6l10.9-3.1l26.6-4.7l15.6-4.7
		l3.1-1.6l9.4-6.3l48.4-29.8l1.6-1.6l31.2-36.1l12.5-18.8l6.3-12.6l3.1-1.6l14.1-14.1l7.8-9.4l9.4-7.8l78.1-18.8l1.6-1.6l7.8,7.8
		l18.8,15.7l7.8,7.8h3.1l9.4,3.1l10.9,1.6l6.2,3.1l14.1,6.3l6.3,3.1l4.7,6.3l6.2,6.3l12.5,4.7l15.6,1.6l4.7,1.6l15.6,1.6l28.1,14.1
		l7.8,1.6l17.2,4.7l12.5,4.7l12.5,17.3l14.1,7.8l9.4,3.1l1.6,1.6l12.5,6.3l18.7,17.3l4.7,3.1l25,6.3l32.8,6.3l9.4,4.7l7.8,4.7
		l6.2,1.6l10.9,1.6l15.6,7.9l6.3,6.3l3.1,1.6l31.2,18.8l14.1,4.7l1.6-11l3.1-9.4l1.6-11h9.4l9.4,1.6h12.5l9.4,1.6l10.9,1.6l9.4,1.6
		l7.8,1.6l1.6,1.6l35.9,6.3l-9.4,33l-7.8,9.4l-1.6,12.5l14.1,23.5l12.5,34.5l-1.6,43.9l4.7,15.7l14.1,22l12.5,15.7l29.7,23.5
		l7.8,9.4l6.3,11l1.6,4.7l-1.6,20.4l1.6,6.3l15.6,31.4l3.1,28.2l3.1,6.3l1.5,1.6l3.1,4.7l4.7,6.3l1.6,3.1l1.6,4.7v14.1l-1.6,6.3
		l-6.3,15.7v9.4l1.6,4.7l3.1,4.7l25,29.8l1.5-1.6l3.1,4.7l7.8,9.4l10.9,11l54.7,45.5h1.6l6.3,3.1v4.7l3.1,1.6l1.6,1.6l15.6,14.1
		l3.1,1.6v-1.6l82.8,69l3.1,1.6l1.6,1.6l12.5,11l6.3,3.1l6.2,4.7l6.3,3.1l7.8,4.7l23.4,9.4l10.9,3.1l25,3.1l18.8,1.6h15.6l29.7,1.6
		h40.6l17.2,1.6l1.6,1.6l-1.6,7.9v7.8l3.1,6.3l1.6,4.7l3.1,4.7l1.6,7.8l23.4,70.6h-3.1l4.7,11v4.7l-1.5,3.1v3.1l-7.8,34.5l-1.6,4.7
		v3.1l-3.1,7.8h3.1l7.8,3.1l9.4,4.7l10.9,11l3.1,4.7l1.6,3.1l-1.6,1.6l3.1,6.3l1.6,1.6l1.5,6.3v3.1l1.6,3.1v4.7l1.6,1.6h-1.6
		l43.8,22l7.8,3.1l6.2,1.6l4.7,1.6l-1.6,6.3l1.6,1.6l-7.8,37.6v3.1l-1.6,12.6l-1.6,1.6l-3.1,6.3l-1.6-1.6l-7.8-1.6h-3.1l-3.1-1.6
		h-3.1l-14.1,4.7l-3.1,1.6l-4.7,3.1l-9.4,7.8l-4.7,4.7l-4.7,1.6l-6.3,3.1h-6.3l-4.7,1.6l-20.3-3.1H2074v1.6h-20.3l-12.5,1.6l1.6,1.6
		l-9.4,3.1l-4.7,3.2l-4.7,1.6l-6.2,3.1l-15.6,9.4l-12.5,3.1l-46.9,3.1h-34.4l-20.3-1.6l-9.4-1.6l-10.9-6.3l-4.7-3.1l-6.2-6.3
		l-4.7-3.2l-3.1,11h3.1l1.6,1.6l3.1,6.3v14.1l1.6,9.4v4.7l1.6,4.7l3.1,12.5l-1.6,6.3l-9.4-4.7h-3.1l-3.1-1.6v1.6l-14.1-6.3l-9.4-4.7
		h-1.5l-4.7-1.6l-23.4-11l-9.4-3.1l-1.6-1.6l-1.5,4.7l-14.1-4.7h-23.4l-15.6,1.6h-9.4l-29.7,4.7l-1.5-1.6h-1.6l-28.1-3.1l-1.6,3.1
		v1.6l-7.8,1.6l-14.1-3.1h-15.6l-15.6-3.1l-4.7-1.6l-6.3-1.6l-4.7,7.9l1.5,1.6v1.6l-6.2,15.7l-7.8,22l-6.3,12.5l-4.7,12.5l-1.6,9.4
		v11l1.6,42.4l3.1,39.2l3.1,26.7l1.5,4.7l7.8,12.5h-14.1v-7.9h-3.1l-6.2,12.6l-3.1-1.6l-6.2,9.4l-7.8,11l-4.7,4.7l-3.1,4.7l-3.1,7.9
		l-3.1,9.4l-7.8,18.8l-1.6,1.6l4.7,1.6l1.5,1.6h1.6v3.1l-9.4-3.1h-3.1l-3.1,3.1l-3.1,1.6h-7.8l-1.6-1.6l-7.8-1.6l-6.2-1.6l-7.8,14.1
		l-6.3,23.5l-18.8,36.1l6.3,12.5l4.7,25.1l-50,26.7l-40.6,17.3l-23.4,9.4l-42.2,1.6l-35.9,18.8l-18.8,18.8l-4.7,45.5v34.5
		l-20.3,29.8l-10.9,34.5l4.7,37.6l28.1,48.7l3.1,29.8l-10.9,25.1l-20.3,43.9l10.9,81.6l-1.6,37.6L1208.4,3687.3z"/>
	<path id="Steglitz-Zehlendorf_1_" class="st0" d="M1208.4,3687.3L1208.4,3687.3l-14.1,69.1l-45.3,51.8l-37.5,64.3l-70.3-3.1
		l-96.9,65.9l-1.6,1.6l-40.6,50.2l-32.8,42.4l-4.7,4.7l-62.5,54.9l-134.4,17.3l-28.1,4.7l-15.6,17.2l-10.9-6.3l-12.5,1.6l-15.6,6.3
		l-12.5-3.1l-31.2,7.8l-9.4,18.8v15.7l-10.9,14.1l-3.1,3.2l-48.4,26.7l-35.9,54.9l-18.8,11l7.8,54.9l-51.6,45.5l-3.1,4.7l-9.4,12.5
		l-14.1,7.9l-9.4,22l-14.1-7.8l-12.5-3.1l-7.8-3.2l-7.8-7.8l-9.4-4.7l-6.2,3.1l-10.9,11l-1.6,7.9l-4.7,12.5l-21.9,28.3l-79.7,39.2
		l20.3,103.5v20.4l1.6,7.9l4.7,7.8l9.4,3.2l3.1,1.6l3.1,3.1l3.1,4.7l3.1,1.6l1.6,1.6l43.7,22l7.8-9.4l4.7-3.1l3.1-3.1h-1.6l4.7-7.9
		v-6.3l-12.5-7.8l-14.1-26.7l3.1-3.1l29.7-7.9l7.8-1.6l6.2,1.6v6.3l-1.6,6.3l3.1,14.1l1.6,12.5l-1.6,15.7l39.1,15.7l6.2-3.2l6.2,6.3
		l7.8-1.6l6.3-6.3v-17.3l1.6-20.4v-9.4l-3.1-7.9l3.1-3.1h4.7l18.8,6.3h1.6l4.7,29.8l15.6-3.1l1.5,17.2l-14.1,1.6l3.1,12.5h-1.6v3.1
		l-21.9,3.1l-17.2-4.7l-1.6,4.7l-1.6,7.8h-1.5v1.6l4.7,1.6l14.1,1.6l4.7,1.6l7.8,6.3l-1.6,3.1l-10.9,11l15.6,12.6l14.1,22l1.6,12.5
		l6.3,9.4l46.9,29.8l15.6,3.1l7.8,15.7l15.6,22l20.3,25.1l21.9,20.4l9.4,9.4l7.8,3.1l6.2,1.6h6.2l12.5-3.2l7.8-3.1l32.8-22l7.8-6.3
		l10.9-12.5l14.1,12.5l1.6,1.6l15.6,6.3l3.1,1.6l14.1,4.7v3.1l-17.2,3.1l-14.1,1.6l4.7,18.8l1.6,1.6v1.6h18.8l-3.1,1.6l3.1,1.6
		l3.1-3.2l1.6,1.6h6.2l-1.6,1.6h6.3l-7.8,4.7l-20.3,17.3l-9.4,9.4l-7.8,6.3l-7.8,7.9l-23.4,26.7h-3.1v-1.6l-1.5,3.1v1.6l1.5-1.6
		l-14,22l-3.1-4.7l10.9-17.2l1.6,1.6l1.6-3.1l-3.1,1.6h-15.6v1.6h-23.4l-6.2,36.1l15.6,12.6l1.6,1.6l9.4,7.8l15.6,15.7l4.7,3.1h1.6
		l1.6-4.7h6.2l12.5,3.1l9.4-25.1h-3.1l-4.7,1.6l-4.7-1.6l-10.9-11l-15.6-17.3l18.7-23.5l9.4-11l12.5-14.1l3.1-4.7l4.7-3.1l37.5-31.4
		l15.6-11l3.1-3.2l18.8-14.1l1.6,1.6l12.5-4.7l1.6,6.2v3.2l-1.6,1.6l6.2,9.4l10.9,4.7l9.4,6.3l10.9,1.6l12.5,1.6l21.9,3.1l12.5,1.6
		l10.9,1.6l12.5,1.6l57.8,17.3l96.9-7.8h9.4l31.3-22l-4.7-32.9v-3.1l-17.2,6.3h-6.2l-6.2,1.6h-3.1l-82.8,12.5l-28.1,4.7v-3.1
		l1.5-14.1v-6.3l6.3-12.5l3.1-11l4.7-9.4l1.6-9.4v-48.7h1.6l157.8-86.3l4.7-3.1l110.9-59.6h1.6l121.9-65.9v-1.6l6.2-3.1l23.4,1.6
		l7.8-1.6h10.9l10.9-1.6l25-3.1l53.1-15.7l18.8-7.9l7.8-3.1l10.9-6.3l6.3-1.6l6.2-3.1l23.4-14.1l6.3-6.3l10.9-1.6l1.6-1.6l14.1-4.7
		l23.4-9.4l20.3-9.4v1.6l14.1-7.9l3.1,3.1v1.6h14.1l20.3,4.7h1.6l48.4,4.7l12.5-4.7l1.5-1.6l12.5-3.1l21.9,1.6l35.9-3.1l51.6-3.1
		l12.5,40.8l3.1,23.5l1.6,6.3l1.6,7.8l1.6,15.7v3.1l4.7,20.4l6.2,47.1v51.8l-3.1,6.3l4.7,9.4l1.6,7.8v14.1l1.6,3.1l3.1,22v4.7
		l15.6-11l1.6-1.6l7.8-3.2l12.5-4.7h4.7l7.8-1.6l28.1-3.1h6.2l7.8,1.6l17.2,3.1l7.8,1.6l7.8,4.7l20.3,14.1l9.4,3.1l17.2,6.3
		l10.9,3.1h21.9l15.6,1.6l14.1-1.6l23.4-7.8l12.5-6.3l4.7-1.6h1.6l12.5-11l25-17.3l10.9-9.4l46.9-42.4l57.8-51.8l3.1-3.1l29.7-28.2
		l10.9-7.8l14-12.5l12.5-9.4l1.6,3.1v1.6l3.1,9.4l-1.6,7.9l-3.1,4.7l-4.7,3.1l-3.1,1.6l1.6,4.7l1.6,1.6l23.4,36.1l1.6,3.1l25,39.2
		l3.1,3.1l9.4,14.1l1.6,1.6l12.5,18.8l4.7,7.9l12.5,20.4l31.2,47.1l7.8,14.1l6.2,12.5l18.8,28.2l7.8,15.7l1.6,1.6l18.8-23.5l1.6-1.6
		l3.1-1.6l25-17.3l18.7-12.6l1.6-1.6l6.2-3.1l9.4-6.3l6.2-3.1l68.8-43.9l76.6-45.5l15.6-9.4l29.7-18.8l37.5-23.5l3.1-1.6l9.4-6.3
		h-3.1v-1.6l1.6-6.3v-22l-1.6-7.9l-1.6-4.7l9.4-6.3l3.1-1.6l12.5-7.8l9.4-6.3l25-12.6l1.6-1.6l20.3-9.4l1.6-1.6l4.7-1.6l17.2-11
		v-1.6h1.6v-1.6l21.9-9.4l1.6-1.6l43.7-25.1l3.1-1.6l-1.6-1.6l12.5-9.4l3.1-1.6h1.6l7.8-3.1l3.1-3.1l15.6-6.3v-1.6h1.6v-1.6h1.6
		v-1.6l4.7-7.8v-1.6l1.6-1.6l12.5-28.2v-1.6l21.9-47.1v-3.1l6.2-12.5l1.6-1.6l4.7,3.2l17.2-14.1l10.9-7.9v-1.6l1.6-1.6l3.1-1.6
		l-4.7-14.1l-10.9-29.8l-7.8-18.8l-1.6-6.2l-3.1-11l-6.2-15.7l-6.2-18.8l-1.6-3.1l-4.7-14.1l-1.6-3.1l-9.4-29.8l-6.3-18.8l-6.2-14.1
		l-15.6-42.4l-3.1-7.9v-1.6l-4.7-12.6v-1.6l1.6-3.1l-1.6-4.7l-1.6,1.6l-1.6-1.6l-3.1-11l-6.3-17.2l-1.6-4.7l-3.1-6.3l1.6-1.6v-1.6
		h-1.6v-1.6h-1.5v-4.7l-3.1-6.3l-9.4-29.8l-3.1-6.3l-4.7-15.7l-3.1-3.1v-1.6l-1.6-3.1v-1.6l-1.6-3.1l-1.5-7.8l-3.1-7.9l-4.7-11
		l-3.1-6.3l1.6-3.1l-4.7-9.4v-1.6l-4.7-12.6v-3.1l-3.1-11H2988v-4.7l-1.6-1.6l-1.6-6.3l-6.3-12.6l-4.7-1.6l-4.7,1.6l-4.7,3.1
		l-6.2,1.6l-4.7,1.6l-1.6,1.6l-12.5-3.1h-6.2v-34.5h-7.8l-3.1-1.6h-1.6l-3.1-3.1l1.6-3.1l-9.4-15.7l-20.3-28.2l-3.1-3.1l-17.2-20.4
		l-1.6-1.6l-4.7-3.1l-18.8-20.4l-3.1-4.7h-1.6l-14.1-14.1l-1.6-17.3h-1.6l-7.8-4.7l-10.9-6.3l-6.3-3.2l-3.1,6.3l-10.9,14.1l-1.6-1.6
		l-9.4,1.6l-3.1,1.6l-21.9,3.2l-7.8,11v1.6h-1.6v-1.6l-12.5-6.3l-7.8,12.5l-4.7,9.4l-4.7-3.1l-1.5-1.6l-34.4-18.8l-1.6-1.6
		l-15.6-9.4l-3.1-1.6l-15.6-9.4h-20.3l-4.7-1.6h-29.7l-50-1.6h-1.6l-3.1,1.6l-1.6,1.6l-3.1-1.6l-3.1-3.1l-4.7-3.1l-1.6-3.1l-3.1-3.1
		l-6.2,4.7l-1.6-1.6h-1.6l-7.8-6.3l-12.5,9.4v-1.6l-1.6-1.6l-29.7-7.9h-1.6l-54.7-15.7h-3.1l-23.4-7.8l-3.1-1.6l-29.7-7.9l-3.1-1.6
		l-21.9-6.3v3.2l-3.1,4.7l-4.7-6.3l-3.1-6.3l-15.6,6.3h-3.1l-15.6,6.3h-1.6l-7.8,3.2l-1.6,1.6l-18.7,6.3h-1.6l-15.6,4.7h-3.1
		l-3.1,1.6l-12.5,3.1h-3.1l-7.8,1.6l-3.1,1.6v-3.1l-3.1,1.6l-14.1,3.1h-3.1l-31.2,4.7h-1.6l-9.4,3.1l-60.9,11l-3.1-1.6l-3.1,1.6
		l-17.2,3.1l-4.7,1.6l-6.3,1.6l-3.1-1.6h-4.7l-1.6-1.6l-3.1-1.6l-1.6-3.1l-4.7-7.9l-9.4,7.9l-3.1,4.7l-7.8,6.3h-4.7l-3.1,3.1h-9.4
		l-12.5-1.6l-14.1-1.6l-9.4-1.6l-12.5,1.6h-12.5l-50-15.7h-1.6l-3.1-3.1l-1.6,1.6l-3.1-1.6l-28.1-7.8h-3.1l-14.1-4.7l-10.9-3.1
		l-26.6-6.3v-1.6l-7.8-1.6l-6.2-1.6l-3.1-1.6h-1.6l-7.8-1.6l-15.6-4.7l-14.1-7.9l-10.9-4.7l-14.1-6.3h-12.5l-17.2,4.7l-18.8,1.6
		l-14.1,4.7l-18.8,1.6l-4.7-1.6l-7.8,1.6l-40.6-1.6l-20.3-1.6h-6.3l-1.6,1.6l-21.9,4.7l-3.1,1.6l-4.7,3.2h-1.5l-7.8-1.6h-3.1
		l-1.6,1.6l-3.1,1.6h-3.1l-7.8-3.2l-9.4-3.1h-6.2l-12.5-3.1l-10.9-4.7l-4.7-1.6l-3.1-1.6l-9.4-1.6l-1.6-1.6h-3.1l-15.6,1.6l-9.4,4.7
		l-6.2,1.6l-4.7,3.1l-9.4,15.7l-14.1,4.7h-3.1l-9.4-4.7l-1.6-3.1l-3.1-3.1v-20.4l-1.6-3.1l-4.7-7.9l-3.1-1.6l-4.7-1.6l-12.5,1.6
		l-6.3,4.7l-14.1-3.1l-54.7-12.6L1208.4,3687.3z"/>
	<path id="Tempelhof-Schöneberg_1_" class="st0" d="M3652,3947.7L3652,3947.7l-4.7,14.1l-3.1,11l-3.1,26.7l-7.8,14.1l-3.1,25.1
		l-1.6,6.3l-6.3,11l-1.6,4.7l-4.7,20.4v1.6l-14.1,51.8l-9.4,42.4l-1.6,4.7l-3.1,15.7l-3.1,9.4l-1.6,7.8v14.1l-6.2,15.7l-6.3,17.3
		l-1.6,3.1v4.7l-1.6,6.3v4.7l-3.1,7.8L3552,4318l-4.7,12.5l-1.5,3.1l-1.6,4.7l-1.6,18.8v1.6l-4.7,20.4v7.8l-4.7,11l-1.6,6.3
		l-3.1,6.3l-12.5,26.7l-4.7,11l-3.1,6.3l-1.5,4.7v-1.6l-1.6,3.1v1.6l-3.1,4.7v1.6l-1.5,4.7l29.7,6.3l-6.2,31.4l-6.3,3.1l-43.8,17.3
		l-7.8,12.5l6.3,17.3v1.6l3.1,7.9l10.9,31.4l1.6,6.3l7.8,20.4v1.6l3.1,7.8l26.5-6.3l1.6-1.6l9.4-1.6l10.9-1.6l14.1-1.6h15.6l7.8,1.6
		l1.6,1.6l7.8,1.6l23.4,12.5l6.2,1.6l6.2,4.7l1.6,1.6l32.8,20.4l3.1,1.6l12.5,4.7v4.7l-9.4,4.7l-3.1,11l-1.6,23.5v7.8l1.6,7.9
		l7.8,32.9l1.6,3.1l3.1,11l7.8,31.4l6.2,23.5l29.7,105.1v4.7l10.9,34.5l18.8,76.9l1.6,1.6l3.1,11l3.1,25.1l1.6,1.6v9.4l-6.2,12.5
		v1.6l-12.5,29.8l-14.1,31.4l-17.2,39.2l-7.8,17.2l-14,36.1l-29.7-1.6h-3.1l-39.1-3.2h-15.6l3.1-9.4l-10.9,1.6l-9.4,1.5l-3.1,1.6
		h-17.2l-9.4-1.6l-4.7-1.5h-3.1l-3.1-1.6l-10.9-1.6h-14.1l-6.2-1.6h-1.6l-10.9-1.6h-3.1l-4.7-1.6l-7.8-1.6h-4.7l-4.7-1.6h-3.1
		l-20.3-1.6l-1.6-1.6l-14.1-1.6h-20.3v1.6l-10.9-1.6l-25-1.5l-31.2-1.6h-3.1l-1.6-9.4l-1.6-14.1v-23.5l1.6-3.1v-6.3l-1.6-3.1v-17.2
		l-1.6-33v-3.1l-4.7-39.2v-3.1l-3.1-31.4l-51.6,4.7l-39.1,1.6h-39.1l-35.9-3.1l-14.1-1.6l17.2-94.1l-54.7-31.4l-14.1-9.4l-12.5-7.8
		l-18.7-9.4l-12.5-9.4l-1.5-1.6l-6.3-4.7l-12.5-6.3l-18.8-18.8l-4.7-3.1l-9.4-7.8l-9.4-6.3l-10.9-9.4l-9.4-7.9l-10.9-11l-6.2-4.7
		l-4.7-4.7h-1.6l-57.8-58l-29.7-31.4l3.1-70.6h-4.7v-1.6l1.6-6.3v-22l-1.6-7.9l-1.6-4.7l9.4-6.3l3.1-1.6l12.5-7.8l9.4-6.3l25-12.6
		l1.6-1.6l20.3-9.4l1.6-1.6l4.7-1.6l17.2-11v-1.6h1.6v-1.6l21.9-9.4l1.6-1.6l43.7-25.1l3.1-1.6l-1.6-1.6l12.5-9.4l3.1-1.6h1.6
		l7.8-3.1l3.1-3.1l15.6-6.3v-1.6h1.6v-1.6h1.6v-1.6l4.7-7.8v-1.6l1.6-1.6l12.5-28.2v-1.6l21.9-47.1v-3.1l6.2-12.5l1.6-1.6l4.7,3.2
		l17.2-14.1l10.9-7.9v-1.6l1.6-1.6l3.1-1.6l-4.7-14.1l-10.9-29.8l-7.8-18.8l-1.6-6.2l-3.1-11l-6.2-15.7l-6.2-18.8l-1.6-3.1
		l-4.7-14.1l-1.6-3.1l-9.4-29.8l-6.3-18.8l-6.2-14.1l-15.6-42.4l-3.1-7.9v-1.6l-4.7-12.6v-1.6l1.6-3.1l-1.6-4.7l-1.6,1.6l-1.6-1.6
		l-3.1-11l-6.3-17.2l-1.6-4.7l-3.1-6.3l1.6-1.6v-1.6h-1.6v-1.6h-1.5v-4.7l-3.1-6.3l-9.4-29.8l-3.1-6.3l-4.7-15.7l-3.1-3.1v-1.6
		l-1.6-3.1v-1.6l-1.6-3.1l-1.5-7.8l-3.1-7.9l-4.7-11l-3.1-6.3l1.6-3.1l-4.7-9.4v-1.6l-4.7-12.6v-3.1l-3.1-11H2988v-4.7l-1.6-1.6
		l-1.6-6.3l-6.3-12.6l-4.7-1.6l-4.7,1.6l-4.7,3.1l-6.2,1.6l-4.7,1.6l-1.6,1.6l-12.5-3.1h-6.2v-34.5h-7.8l-3.1-1.6h-1.6l-3.1-3.1
		l1.6-3.1l-9.4-15.7l-20.3-28.2l-3.1-3.1l-17.2-20.4l-1.6-1.6l-4.7-3.1l-18.8-20.4l-3.1-4.7h-1.6l-14.1-14.1l-1.6-17.3h-1.6
		l-7.8-4.7l-10.9-6.3l-6.3-3.2l-3.1,6.3l-10.9,14.1l-1.6-1.6l-9.4,1.6l-3.1,1.6l-21.9,3.2l-7.8,11v1.6h-1.6v-1.6l-12.5-6.3
		l-7.8,12.5l-4.7,9.4l-4.7-3.1l-1.5-1.6l-34.4-18.8l-1.6-1.6l-15.6-9.4l-3.1-1.6l-15.6-9.4H2624l1.6-3.1v-28.2l1.5-1.6v-17.3
		l4.7-4.7v-3.1l-3.1-1.6v-6.3h-1.6v-17.3l1.6-1.6v-56.5l1.6-1.6v-40.8h1.6l81.2,1.6h7.8l39.1,1.6h3.1v-6.3h1.6l-1.6-1.6h1.6l9.4-1.6
		l32.8-4.7v-12.6l1.6-17.2v-14.1l-1.6-1.5v-23.5l1.6-7.9v-58.1h-1.6v-6.3l1.6-7.8v-23.5h1.6l-1.6-6.3l-1.6-1.6v-9.4l-1.5-4.7v-3.2
		h1.5v-3.1h-1.5l1.5-4.7v-7.9l1.6-1.6h3.1l1.6-4.7l-4.7-4.7l1.6-18.8v-3.1h-1.6v-6.3l1.6-18.8l1.6-4.7v-1.6l1.6-1.6v-9.4l-1.6-1.6
		l-1.6-18.8h1.6v-1.6h-1.6l1.6-1.6l4.7-23.5h1.6v-4.7l1.6-3.1l9.4-28.2l-1.6-4.7l1.6-3.1l-1.6-1.6l-10.9-6.3l-3.1-1.6l-4.7-4.7
		l1.6-3.2l21.9-34.5l4.7-6.3l18.8-28.2v-1.6h1.6l10.9,4.7l4.7,1.6l12.5,4.7l3.1,1.6l12.5,4.7l4.7,1.6l20.3,9.4l12.5,4.7l9.4,4.7
		l21.9,9.4l1.6-1.6l7.8,3.1l4.7,3.1h1.6l18.8,6.3v1.6l23.4,9.4h3.1l4.7,3.2l17.2,7.8l4.7,3.1l21.9,9.4l6.3,3.1l14.1,3.1h3.1
		l14.1,3.1l3.1,1.6l26.6,4.7l4.7,1.6l3.1-3.1l1.6,3.1l-1.6,11l-9.4,12.6l-1.6,15.7l-1.5,34.5l1.5,9.4l-1.5,7.9l-1.6,3.1l6.2,1.6
		l3.1,1.6l1.6-3.1l18.8,7.9v1.6l3.1,1.6h1.5l4.7,3.1h4.7l3.1,1.6l1.6,1.6h3.1l7.8,3.1l4.7,1.6h3.1l4.7,1.6l4.7,3.1h3.1l1.6,1.6h4.7
		l1.6,1.6l-1.6,3.1l-9.4,17.2l-1.6,17.3l-6.3,1.6l-12.5,25.1v3.2l6.3,1.5l-1.6,43.9h-26.6v3.1h29.7l20.3,1.6h106.2V3361l84.4,1.6
		v32.9l65.6,1.6v-1.6l12.5-20.4h29.7l28.1-17.3l4.7-1.6l-3.1,3.1l-1.6,3.1l-1.6,4.7l-1.6,3.1v6.3l-1.5,3.1l-1.6,31.4l-1.6,3.1v14.1
		h-1.6v12.5l-1.6,4.7l1.6,14.1l6.2,23.5l-1.5,11l3.1,1.6l42.2,7.8v-4.7l26.6-14.1l28.1,171l4.7,37.7l1.6,15.7l1.6,9.4l46.9-7.9
		l3.1,1.6v11l1.6,7.8v20.4l1.6,11l3.1,3.1v4.7l-1.6,14.1v1.6l10.9,3.1l1.6,15.7l-18.7-3.1l-7.8,17.3l-1.6,4.7l25,14.1l17.2,11
		l20.3,20.4l-12.5,1.6h-12.5l-7.8,1.6l-6.3-1.6h-4.7l-12.5-1.6l-1.6,1.6l-1.6,4.7l-1.6,3.2l-9.4,22l-3.1,7.8l-7.8,14.1l-4.7,11
		l-7.8,15.7L3652,3947.7z"/>
	<path id="Treptow-Köpenick_1_" class="st0" d="M4217.6,3583.7L4217.6,3583.7l-3.1-6.3v-7.9l3.1-14.1l4.7-22l3.1-17.3l-28.1-28.2
		l-71.9-84.7l-1.6-1.6l1.6-1.6l-17.2-18.8l-1.6-3.1l-12.5-12.6l-1.6-3.1l-20.3,25.1l-1.5,3.1l-25-21.9l-1.6-1.6l-25-20.4l-7.8-7.8
		l-1.6,1.6l-17.2-17.3v1.6l-1.6-1.6l-9.4-7.8l-1.6-1.6l-7.8-6.3l-25,26.7l-1.6-1.6l-12.5-11l-3.1-1.6l-7.8-7.9l-17.2-14.1l-7.8-7.9
		v-7.9l6.2-9.4l1.6-1.6l3.1-1.6l18.8-23.5l21.9-28.3l6.2-6.3v-1.6h1.6l1.5-1.6h1.6l1.6-1.6h7.8l1.6,1.6h9.4l1.6-1.6h1.6v-1.6
		l23.4-28.2l12.5-12.5l4.7-3.1l4.7-1.6h3.1l4.7-1.6h14.1l14,4.7l42.2,12.6l4.7,3.1l21.9,14.1h3.1l6.2,3.1h4.7l4.7,3.1v1.6l-1.6,3.1
		l-3.1,4.7l-1.6,1.6l1.6,6.3l10.9,7.9l28.1,18.8l17.2,6.3l26.6,14.1l28.1,7.8l18.8,14.1l7.8,6.3l9.4,11l6.3,9.4l1.6,11l1.6,3.2v1.5
		l1.6,3.1l4.7,11l4.7-11l1.6-3.1l3.1-1.5h9.4l14.1,4.7l4.7,4.7v1.6l9.4,22l12.5-9.4l4.7-4.7l14.1-9.4l7.8-4.7l18.8-3.1l7.8,1.6
		l14.1,4.7h1.6l1.6,1.6h1.6v1.6h1.6l15.6,23.6l1.6,1.6v1.6l1.6,1.6v1.6l7.8,17.3l3.1,12.5l3.1,14.1l26.6-3.1h15.6l1.6,1.6h1.6
		l3.1,1.6l7.8,3.1l3.1,1.6l14.1,3.2l3.1,1.6h4.7l3.1,12.5l9.4,29.8l1.6,1.6l10.9,32.9l1.6,1.6l18.8,26.7l17.2,26.7v1.6h1.6l37.5-9.4
		h1.6l9.4-1.6l4.7-1.6h3.1l4.7-1.6h6.2l3.1,1.6h6.2l4.7,1.6h1.6l12.5,6.3l4.7,1.6l29.7,17.3l1.5,1.6h3.1v-1.6l1.6-1.6l4.7-7.8
		l4.7-9.4l9.4,7.9l12.5,14.1l21.9,29.8l17.2,25.1l7.8,12.6l28.1,37.6l3.1-3.1l1.6-3.1h1.6l10.9-14.1l18.8-23.5l17.2-22l7.8-11
		l21.9-28.3l4.7-4.7l6.3-7.8v-1.6l3.1-3.1l7.8,4.7l1.6,1.6l15.6,11h1.6l6.3,1.6l39.1,6.3l3.1,1.6l14,1.6l1.6,1.6v-3.1l-3.1-6.3v-1.6
		h10.9l14.1,3.1l12.5,1.6h35.9l12.5,1.6l12.5,4.7h37.5l10.9-1.6l12.5-1.6l10.9-4.7l9.4-3.1l1.5-1.6l1.6,3.2h1.6l1.6,3.1h1.6l7.8-1.6
		h1.6v-1.6l4.7-1.6h1.6v-1.6l4.7-9.4l17.2-11h3.1l7.8-6.3l1.6-1.6l15.6-9.4v-1.6h1.6l14.1-9.4l3.1,4.7h1.6l1.6-1.6v-1.6l-1.6-3.1
		v-3.1l3.1-3.2l3.1-6.3l1.6-6.3l1.6-7.8l3.1-17.3l1.6-1.6l6.2-4.7l21.9-11h1.6l3.1-3.1l15.6-7.9l12.5,9.4l1.6,1.6l9.4,7.8l14.1-6.3
		l3.1-1.6l28.1-12.5h3.1l1.6,1.5l7.8,6.3l1.6,1.6l14.1,11l28.1,23.5l9.4,6.3l14.1,12.5l3.1,3.1l12.5,9.4h1.6l12.5,11l12.5,12.6
		l4.7,3.1l15.6,15.7v-1.6l4.7,3.1l17.2,14.1l3.1,1.6l12.5,9.4h9.4l9.4-1.6h14.1l15.6,1.6h7.8v3.1l-3.1,26.7l3.1,1.6l31.2,9.4
		l1.6-1.6l6.3,1.6h1.6l14.1,4.7l15.6,9.4l21.9-26.7l6.2,3.1l37.5,11v3.2h-1.6v29.8h9.4v26.7l-6.3,6.3l14.1,3.1h3.1l3.1-6.3l-3.1-6.3
		v-4.7l-3.1-6.3l3.1-1.6l-3.1-3.2l1.5-4.7v-7.8l25,1.6l-1.6-3.1l-3.1-3.1v-20.4l3.1-58.1h32.8l9.4-6.3l10.9-11l10.9-7.9l53.1-20.4
		l35.9-23.5l17.2-11l15.6-9.4l6.2-9.4h3.1l15.6,4.7l6.3,1.6h18.7l3.1,1.6h7.8l15.6,7.8l14.1,7.8l12.5,6.3l10.9,4.7l7.8,3.2l14.1,7.8
		l7.8,4.7l23.4,23.5l34.4,17.3l7.8,3.2l4.7,1.6l10.9,1.6l6.2-1.6l3.1-1.6l10.9-1.6l15.6-6.3h1.6v7.9l3.1,1.6l15.6,4.7l3.1,3.1
		l7.8,3.1l15.6,14.1l10.9,7.8l7.8,7.9l20.3,12.5l12.5,11l23.4,14.1l1.5,3.1l1.6,1.6l14.1,18.8l6.3,9.4h1.5l18.8,22l40.6,15.7
		l18.7,3.1h15.6l12.5,4.7l15.6,3.1l17.2,1.6l12.5,4.7h1.6v3.2h3.1v3.1l7.8,20.4l3.1,4.7l4.7,11l4.7,22v9.4l1.6,25.1v1.6l7.8,20.4
		l1.6,14.1l-1.6,15.7l-1.6,4.7l20.3,4.7l12.5,3.2h18.7l15.6,1.6l6.2-15.7l3.1-22v-6.3l1.6-7.8l-3.1-31.4l-1.5-3.1v-3.1l-10.9-1.6
		l-9.4-1.6l-1.6-6.3l-1.6-14.1l-3.1-18.8v-9.4l-1.6-7.8l-3.1-9.4l-1.6-9.4l-4.7-9.4l-12.5-23.5l-15.6-36.1l23.4,1.6l6.3,12.5
		l6.2,4.7l12.5,12.6l12.5,9.4l9.4,7.9l9.4,6.3l14.1,7.8l37.5,23.5l1.6,1.6l18.8,4.7h15.6l12.5,1.6l1.6,7.8l15.6,34.5l1.6,1.6
		l9.4,20.4l9.4,17.3v3.1l10.9,23.5l20.3,22v1.6l70.3,80l25,4.7l3.1,1.6l10.9,1.6l7.8-4.7l9.4-3.1l4.7,1.6l7.8,1.6l1.6,6.3l9.4,4.7
		l7.8,3.1l4.7,3.1h1.6l31.2,4.7l9.4,3.1l7.8,1.6l9.4,1.6l15.6-4.7l7.8,1.6l9.4,3.1l3.1,1.6h1.6l17.2,1.6l7.8,1.6l3.1,1.6l4.7,3.1
		l3.1,1.6l25,7.8l7.8,3.1l6.2,4.7l12.5,15.7l3.1,9.4l6.3-1.6l4.7-1.6l-3.1,7.9l-18.7,42.4l3.1,1.6h3.1l20.3,3.1l3.1,1.6l-3.1,7.9
		l-14,64.3l-1.6,6.3l23.4,3.1l36,6.3l1.6,3.1l-1.6,6.3l-1.6,4.7l-7.8,14.1v1.5l-57.8-7.8l-1.5-1.6l6.2-28.2v-1.6l1.6-4.7l12.5-51.8
		l-62.5,3.1l-53.1,47.1l-14.1,12.5h-1.6l-4.7,32.9v1.6l-3.1,25.1l-3.1,29.8h-1.6l-10.9-1.6l-1.6,1.6l-12.5-1.6l-23.4-3.1v4.7
		l-10.9-1.6l-12.5-1.6l-10.9-1.6l-9.4-3.1l-11-1.6l-18.7-4.7l-25-12.5l-14.1-7.9l-21.9-15.7l-12.5-11l-3.1,3.1l14.1,12.5l9.4,7.8
		l7.8,4.7l17.2,9.4l6.2,4.7l4.7,1.5l9.4,4.7l4.7,1.6l7.8,1.6l10.9,3.1l7.8,3.1l9.4,1.6l7.8,1.6l17.2,1.5l1.6,1.6l34.4,4.7l-7.8,53.4
		l-4.7,11l25,9.4l4.7,1.6l-1.6,3.1l-3.1,22l-6.2,6.3l-12.5-4.7l-1.6,4.7l-14.1-4.7h-4.7l-3.1,3.2l-64.1,103.5l-1.6,1.6h-1.6v1.6h1.6
		v3.1l1.6,1.6v3.1l1.6,1.6v11l-3.1,6.3l-4.7,12.5h1.5l-3.1,3.2l-1.5,3.1l-3.1,11v1.6l-3.1,12.5v9.4l4.7,7.8l3.1,6.3l4.7,7.8
		l9.4,12.5l17.2,29.8l4.7,14.1l1.6,9.4l3.1,4.7l3.1,1.6l10.9,4.7l6.3,3.1l4.7,3.1l1.6,1.6l1.6,3.1l6.2,18.8l6.3,7.8v3.2l4.7,9.4
		l-9.4,9.4l-23.4,11l-1.6,1.6l-6.3,15.7v1.6l-3.1,12.6l-1.6,1.6l-1.6,4.7l-1.5,7.8v6.3l1.5,7.8v6.3l1.6,3.1v1.6l-3.1-1.6l-1.6,3.1
		v1.6l-4.7,1.6h-1.5l-1.6,1.6l1.6,1.6l-3.1,6.3l-7.8,7.9l-6.3,4.7l-1.6,6.3l-14.1,9.4h-3.1l-1.6-1.6l-3.1-1.6v-6.3h-1.6l-1.6,1.6
		h-3.1l1.6,3.1v1.6h-1.6l-1.6,1.6l-1.5-1.6l-4.7-1.6l-3.1-1.6l-3.1-3.2v-1.6l-1.5,1.6h-1.6v4.7l-3.1,1.6l-10.9,4.7h-3.1l-3.1-3.1
		l-4.7,9.4v1.6l-3.1,4.7h-3.1l-1.6,3.1h-3.1l-3.1,1.6l-3.1,4.7h-4.7l-1.6,1.6l-29.7-14.1l-4.7,3.1h-1.6l-6.2,1.6h-3.1l-9.4-3.1
		l-1.6-1.6l-4.7-9.4l-3.1-3.1l-9.4,1.6l-7.8,6.3l-7.8,3.1l-3.1,3.1l-1.6,3.1l1.6,1.6l-3.1,6.3v1.6l-1.6,3.1l-3.1,3.1l-4.7,1.6h-3.1
		l-6.2,4.7l-1.6,1.6v1.6l-4.7,3.1l-9.4,12.6l-4.7,4.7l-4.7-3.1l-4.7,9.4v3.1l-6.2,4.7l-4.7,1.6l-3.1,1.6h-7.8l-6.2,1.6l-12.5,18.8
		l-9.4,9.4l-10.9,3.1h-4.7l-4.7-1.6h-1.6l-7.8,7.9l-1.6,6.3l-3.1,3.2l-1.6,3.1l-1.6,4.7l-3.1,4.7l-3.1,3.1l-3.1,6.3l-1.6,1.6
		l-3.1,1.6l-1.6,1.6l-3.1,1.6l-4.7,3.1l-3.1-1.6v-1.6l-1.6-3.1l1.6-3.1l1.6-4.7h1.6l3.1-6.3v-1.6h-3.1l-4.7,1.6l-3.1,4.7v1.6
		l-3.1,3.1v3.1l1.6,1.6l-1.6,4.7l-1.6,3.1v9.4l-3.1,3.1l-4.7,1.6l-6.2,7.8l-3.1,4.7l-6.2,1.6l-6.2,9.4l-4.7,6.3l-12.5,12.6l-1.6,3.1
		l-1.5,1.6v1.6h-1.6v1.6l-3.1,3.1h-1.6v1.6l-6.2,6.3l-3.1,4.7l-4.7,4.7h-1.6l-1.6,1.6l-6.2,4.7h-4.7l-6.3,6.3l-3.1-7.9l-1.6-3.1
		l-1.6-1.6l-1.6-3.1h-1.6l-3.1-6.3v1.6l-3.1,11v4.7l-9.4-1.6l-1.6,4.7v4.7l-4.7,12.5v1.6l4.7,1.6h4.7l3.1,9.4l6.2,6.3l18.8-4.7
		l37.5,25.1l12.5,9.4l7.8,4.7l21.9-4.7l12.5-4.7h4.7v6.3l-3.1,7.9l-3.1,9.4v4.7l-7.8,31.4l-3.1,11l23.4-4.7l1.6,3.1l9.4,1.6l3.1,4.7
		l-7.8,28.2l-7.8,11v4.7l-3.1,3.1v1.6l-1.6,4.7l-3.1,3.1l-1.6,4.7l-3.1,4.7l-7.8,6.3l-3.1,11h-1.6l-3.1,4.7l-1.6,1.6l-4.7,9.4
		l-3.1,3.2l-6.2,11l-3.1,3.1l-3.1,4.7l-6.2,6.3l-1.6,3.1l-6.2,3.1l-4.7,9.4v1.6l-1.6,1.6l1.6,6.3l1.6,3.1l1.5,6.3h-10.9l-1.6,1.6
		l-3.1,1.5v4.7l6.2,3.1l1.6,1.6h-4.7l-3.1-1.6h-1.6v-1.6l-9.4-6.3h-3.1l-3.1-1.5l-3.1,1.5l-3.1-1.5l1.6,3.1l-3.1,3.1l-3.1,1.6
		l-7.8,1.6h-9.4l-6.3-7.9l-14.1-12.5l-4.7-4.7l-12.5-6.3l-9.4-6.3l-3.1-1.6l-4.7-1.6l-7.8,1.6l-4.7,1.6h-3.1l-6.3,1.6h-6.3l-1.6-1.6
		h-1.5l-1.6,1.6l-3.1,1.6l-4.7,1.6l-4.7,6.3l-3.1,3.1h-1.6l-9.4,9.4l-14,9.4l-1.6,1.6l-3.1,1.6l-9.4,3.2l-3.1,1.6l-9.4,3.1l-3.1,1.6
		h-3.1l-3.1,1.6h-1.6l-3.1,3.1l-1.6,3.1l-1.6,1.6h-1.6l-1.6,1.6l-1.6,3.1v3.1l-1.6,4.7l-1.6,6.3l-3.1,6.3v1.6l-1.6,1.6l-4.7,1.6
		h-1.6v1.6h-1.6l-3.1,1.6l-7.8,7.8l-6.2,12.6l-4.7,4.7l-1.6,3.1l-1.6,4.7l-1.6,3.1h-1.6l-1.5,7.9l-1.6,4.7v12.6l-1.6,4.7l-1.6,3.1
		v4.7l-1.6,3.1l-1.6,4.7v4.7l1.6,7.8l1.6,9.4l1.6,6.3h-12.5l-3.1,3.1h-1.5l-3.1,1.6l-1.6,1.6l-7.8,11l-1.6,1.6v1.6l-1.6,3.1
		l-1.6,1.6v3.1l-4.7,9.4l-1.6,6.3v6.3l3.1,3.1l-4.7,6.3l-1.6,1.6v3.1l-1.6,3.1v1.6l-1.6,3.1l-4.7,3.1l-4.7,1.6l-4.7,3.1l-3.1,1.6
		h-1.6l-3.1,3.1l-6.2,7.9v4.7l-1.6,4.7l-3.1,1.6l-1.6,1.6l-3.1,1.6h-1.6l-3.1,1.6l-4.7,1.6l-3.1,6.3v4.7l-3.1,12.5v1.6l-1.6,12.6
		l1.6,1.6l-1.6,7.8l-6.2,12.5v6.3l1.6,3.1v1.6l-3.1,6.3l-3.1,3.1l-3.1,4.7l-1.6,3.1l-10.9,11l-3.1,4.7l-6.2,6.3l-1.6,4.7l-1.6,6.3
		l-4.7,9.4l-1.6,9.4l-9.4,15.7l-3.1,6.3v1.6l6.2,53.3l-9.4,9.4l-3.1,1.6l-4.7,1.6l-14.1,7.9l-1.6-1.6l-3.1,1.6l-7.8,1.6l-3.1-1.6
		l-15.6-6.3l-4.7-1.6l-1.6-6.3l-6.2-9.4l-1.6-4.7h-18.8l-20.3-33l-23.4-23.5l-17.2-28.2l-1.6-6.3l-6.3-29.8l3.1-22l12.5-1.6
		l1.6-75.3l1.6-80l1.6-3.2v-7.8l3.1-7.8l1.6-9.4l-3.1-7.8v-9.4l6.2-15.7v-6.3l9.4-12.6l3.1-4.7l9.4-18.8l28.1-22l10.9-9.4l14.1-7.8
		l9.4-14.1l3.1-15.7V5421l-4.7-15.7v-20.4l-34.4-6.3l-14-4.7l-1.6-1.6l7.8-29.8v-26.7l-1.6-59.6l-100,22l-14-25.1l-3.1-4.7
		l-34.4-59.6l-9.4,6.3l-11,4.7l-6.2,4.7l-1.6,1.6l-4.7,1.6l-1.6,1.5l-15.6,9.4l-9.4,4.7l-110.9,62.8l-3.1,1.6l-31.3,18.8l-18.7,11
		l-17.2,6.3v-1.6l4.7-14.1l4.7-9.4v-6.3l1.6-11l-3.1-12.6l-10.9-20.4l7.8-12.5l1.6-7.9v-1.6l-4.7-9.4l-4.7-11l-1.6-1.6l-6.2-9.4
		l-4.7-6.3l-6.3-4.7v-1.6l-3.1-4.7l-3.1-7.9l-1.6-7.8l-11-11l-1.5-3.1l-4.7-4.7l-4.7-1.6l-4.7-4.7l-1.6-3.1l-6.3-7.8l-3.1-6.3
		l-1.6-1.6h-3.1l-7.8-1.6l-11-4.7l-12.5-3.1l-12.5-22v-6.3l3.1-11v-9.4l-1.6-3.1l-1.5-1.6h-3.1l-3.1,1.6l-3.1-11l-3.1-3.1l-1.6-4.7
		v-9.4h1.6l1.5-6.3v-12.5l3.1-9.4l-1.5-6.3v-1.6l-9.4-14.1l-1.6-3.1l-1.6-1.6l-1.6-3.2l-10.9,4.7l-12.5,3.1l-28.1,15.7l-28.1,9.4
		l-15.6,6.3l-9.4,3.1l-7.8,1.6l-4.7,1.6l-34.4,9.4l-29.7,7.8l-14.1,1.6l-39.1,14.1l-1.6,1.6l-26.6,7.9l-25,6.3l-14.1,4.7h-40.6
		l-17.2-1.6h-6.3l-28.1-1.6h-12.5l-6.3-1.6l-25-1.6l-40.6-1.6l-25-1.6l-10.9-1.6l-95.3-3.1l-6.3-33v-15.7l3.1-29.8l3.1-11l1.6-17.2
		l1.6-3.1l4.7-18.8l1.6-1.6l1.6-7.8l1.6-3.1l1.6-4.7l-3.1-7.9v-1.6l4.7-1.6l3.1-11l1.6-3.2v-1.6l7.8-17.3l1.6-3.1l1.6-11l-3.1,3.1
		l-9.4,6.3l-3.1,3.1l-4.7,3.1l-7.8,4.7l-7.8,3.1l-14.1,6.3l-7.8,6.3h-1.5l-12.5,7.8l-4.7,4.7l-7.8,3.2l-7.8,6.3l-4.7-4.7l-3.1-1.6
		l-7.8-6.3l-6.2-4.7l-3.1-3.1l-10.9-7.8l-6.2-3.1l-12.5-4.7l-7.8-6.3l-6.2-3.1l-4.7-3.1l-6.3-4.7l-4.7-3.1l-7.8-3.1h-1.6l-23.4-6.3
		l-15.6-7.8l-12.5-4.7v-6.3l9.4-12.5l-3.1-7.9l28.1-28.2l-3.1-3.2l17.2-18.8l1.6-1.6l-1.6-1.6l4.7-6.3l3.1-4.7l4.7-6.2v-1.6l1.6-6.3
		l3.1-6.3v-3.1l1.6-3.1l7.8-31.4l1.6-7.9l-3.1-4.7l6.3-11l-6.3-7.8l4.7-4.7l-1.6-4.7l3.1-7.8l6.2-7.9l-1.6-1.6l-14.1-9.4v-1.6
		l-4.7-3.1l7.8-17.2l-1.6-4.7l-3.1-7.8l-3.1-12.6l-1.6-7.9l1.6-18.8l-14.1-18.8l-3.1-23.5l-4.7-3.1l-3.1-6.3l-3.1-1.6l-9.4-14.1
		l-1.6-4.7v-6.3l3.1-9.4l4.7-9.4l4.7-11l-1.6-1.6l7.8-17.3l3.1-7.8v-6.3l-6.2-3.2l-1.6-1.6h-3.1l-21.9-1.6l-12.5-1.6l-7.8-1.6h-3.1
		l-6.2-1.6l-4.7-1.6l-15.6-4.7l-6.2-1.6l-3.1-1.6l-6.3-1.6l-4.7-1.6l-6.2-3.1l-7.8-3.1l-4.7-3.1l-4.7-1.6l-9.4-6.3l-3.1-1.6
		l-6.2-4.7l-4.7-3.1l-3.1-3.1l-65.6-51.8l-15.6-12.5h-1.6l-3.1-1.6h-1.6l-3.1-3.1l-4.7-6.3l-23.4-18.8l-4.7-1.6l-29.7-23.5l-25-20.4
		l-1.6-3.1l-21.9-17.3l-15.6-12.6l-9.4-9.4l-6.3-1.6l-54.7-43.9l-4.7-4.7h-1.6v-1.6l-1.6-1.6v-1.6h-1.6l-15.6-12.6l-1.6-1.6h-3.1
		l-1.6-1.6l-92.2-73.7l-12.5-11l-6.2-4.7l-15.6-15.7l-4.7-6.3l-1.5-3.1l-3.1-3.1l-1.6-4.7l-1.6-3.1l-1.6-1.6h-1.5v-3.1l-1.6-1.6
		v-1.6l-4.7-11l-3.1-6.3v-1.6h-1.5l-3.1-6.3l-10.9-25.1l-14.1-36.1l-15.6-31.4l-1.6-6.3l-1.6-1.6l-1.6-6.3v-1.6h9.4l29.7,1.6
		l23.4,1.6h21.9l71.9,3.1h4.7l28.1,3.1v-7.9l6.2-18.8l3.1-11l14.1-18.8l3.1-4.7l12.5-29.8v-20.4l-1.6-1.6l-20.3-32.9l-3.1-3.2
		l-6.2-7.8l-4.7-4.7l-1.6-3.1l-14.1-22l-7.8-12.5v-1.6l-3.1-1.6v-1.6l-6.3-12.5l-15.6-23.5l-4.7-7.9v-1.6l-1.6-1.6L4217.6,3583.7
		L4217.6,3583.7z"/>
</g>
<g id="Kreis12" transform="translate(-1099.4425,-1468.408)">
	<text transform="matrix(0.9958 0 0 1 1653.1385 1899.8439)" class="st1"><tspan x="0" y="0" class="st2 st3 st4">Treptow /</tspan><tspan x="0" y="16.8" class="st2 st3 st4">Köpenick</tspan></text>
</g>
<g id="Kreis11" transform="translate(-1099.4425,-1468.408)">
	<text transform="matrix(0.9958 0 0 1 1406.4755 1841.4904)" class="st1"><tspan x="0" y="0" class="st2 st3 st4">Tempelhof /</tspan><tspan x="0" y="16.8" class="st2 st3 st4">Schöneberg</tspan></text>
</g>
<g id="Kreis10" transform="translate(-1099.4425,-1468.408)">
	<text transform="matrix(0.9958 0 0 1 1263.39 1878.0841)" class="st1"><tspan x="0" y="0" class="st2 st3 st4">Steglitz/</tspan><tspan x="0" y="16.8" class="st2 st3 st4">Zehlendorf</tspan></text>
</g>
<text transform="matrix(0.9958 0 0 1 96.469 244.0521)" class="st2 st3 st4">Spandau</text>
<g id="Kreis08" transform="translate(-1099.4425,-1468.408)">
	<text transform="matrix(0.9958 0 0 1 1307.722 1614.5509)" class="st2 st3 st4">Reinickendorf</text>
</g>
<g id="Kreis07" transform="translate(-1099.4425,-1468.408)">
	<text transform="matrix(0.9958 0 0 1 1459.8524 1615.2281)" class="st2 st3 st4">Pankow</text>
</g>
<g id="Kreis06" transform="translate(-1099.4425,-1468.408)">
	<text transform="matrix(0.9958 0 0 1 1473.9374 1890.7482)" class="st2 st3 st4">Neuköln</text>
</g>
<g id="Kreis05" transform="translate(-1099.4425,-1468.408)">
	<text transform="matrix(0.9958 0 0 1 1389.7733 1721.4777)" class="st2 st3 st4">Mitte</text>
</g>
<g id="Kreis04" transform="translate(-1099.4425,-1468.408)">
	<text transform="matrix(0.9958 0 0 1 1614.4725 1744.3312)" class="st1"><tspan x="0" y="0" class="st2 st3 st4">Marzahn /</tspan><tspan x="0" y="16.8" class="st2 st3 st4">Hellersdorf</tspan></text>
</g>
<g id="Kreis03" transform="translate(-1099.4425,-1468.408)">
	<text transform="matrix(0.9958 0 0 1 1526.5946 1722.8253)" class="st2 st3 st4">Lichtenberg</text>
</g>
<g id="Kreis02" transform="translate(-1099.4425,-1468.408)">
	<text transform="matrix(0.9958 0 0 1 1479.3651 1764.1564)" class="st1"><tspan x="0" y="0" class="st2 st3 st4">Friedrichshein /</tspan><tspan x="0" y="16.8" class="st2 st3 st4">Kreuzberg</tspan></text>
</g>
<g id="Kreis01" transform="translate(-1099.4425,-1468.408)">
	<text transform="matrix(0.9958 0 0 1 1288.764 1782.1603)" class="st1"><tspan x="0" y="0" class="st2 st3 st4">Charlottenburg /</tspan><tspan x="0" y="16.8" class="st2 st3 st4">Wilmersdorf</tspan></text>
</g>
</svg>
